<?xml version="1.0" encoding="UTF-8" standalone="no"?>
<!-- Created with Inkscape (http://www.inkscape.org/) -->

<svg
   width="97.085251mm"
   height="45.646496mm"
   viewBox="0 0 97.085249 45.646496"
   version="1.1"
   id="svg5"
   inkscape:version="1.1.2 (0a00cf5339, 2022-02-04, custom)"
   sodipodi:docname="scanCarsOT.svg"
   inkscape:export-filename="_scanCars.png"
   inkscape:export-xdpi="649.41278"
   inkscape:export-ydpi="649.41278"
   xmlns:inkscape="http://www.inkscape.org/namespaces/inkscape"
   xmlns:sodipodi="http://sodipodi.sourceforge.net/DTD/sodipodi-0.dtd"
   xmlns="http://www.w3.org/2000/svg"
   xmlns:svg="http://www.w3.org/2000/svg">
  <sodipodi:namedview
     id="namedview7"
     pagecolor="#ffffff"
     bordercolor="#666666"
     borderopacity="1.0"
     inkscape:pageshadow="2"
     inkscape:pageopacity="0.0"
     inkscape:pagecheckerboard="0"
     inkscape:document-units="mm"
     showgrid="false"
     inkscape:zoom="1"
     inkscape:cx="-27.5"
     inkscape:cy="-10.5"
     inkscape:window-width="2502"
     inkscape:window-height="1368"
     inkscape:window-x="1949"
     inkscape:window-y="43"
     inkscape:window-maximized="1"
     inkscape:current-layer="layer1"
     inkscape:object-paths="true"
     inkscape:snap-intersection-paths="true"
     fit-margin-top="0"
     fit-margin-left="0"
     fit-margin-right="0"
     fit-margin-bottom="0" />
  <defs
     id="defs2" />
  <g
     inkscape:label="Layer 1"
     inkscape:groupmode="layer"
     id="layer1"
     transform="translate(-68.042576,-43.017074)">
    <path
       d="M 87.752295,72.764194 H 74.612484 l -6.569908,7.883887 v 3.941944 h 2.627964 a 3.9419437,3.9419437 0 0 0 3.941944,3.941943 3.9419437,3.9419437 0 0 0 3.941944,-3.941943 h 7.883887 a 3.9419437,3.9419437 0 0 0 3.941944,3.941943 3.9419437,3.9419437 0 0 0 3.941944,-3.941943 h 2.627964 v -3.941944 c 0,-1.458517 -1.169448,-2.627964 -2.627964,-2.627964 H 91.694238 L 87.752295,72.764194 M 75.269476,74.735165 H 80.5254 v 3.284952 h -7.883888 l 2.627964,-3.284952 m 7.226895,0 h 4.598936 l 2.575402,3.284952 h -7.174338 v -3.284952 m -7.883887,7.883888 a 1.9709719,1.9709719 0 0 1 1.970972,1.970972 1.9709719,1.9709719 0 0 1 -1.970972,1.970972 1.9709719,1.9709719 0 0 1 -1.970972,-1.970972 1.9709719,1.9709719 0 0 1 1.970972,-1.970972 m 15.767775,0 a 1.9709719,1.9709719 0 0 1 1.970972,1.970972 1.9709719,1.9709719 0 0 1 -1.970972,1.970972 1.9709719,1.9709719 0 0 1 -1.970972,-1.970972 1.9709719,1.9709719 0 0 1 1.970972,-1.970972 z"
       id="path13603"
       style="display:inline;stroke-width:1.31398" />
    <path
       d="m 128.19975,86.560997 a 1.9709719,1.9709719 0 0 1 -1.97098,-1.970972 1.9709719,1.9709719 0 0 1 1.97098,-1.970972 1.9709719,1.9709719 0 0 1 1.97097,1.970972 1.9709719,1.9709719 0 0 1 -1.97097,1.970972 m 1.97097,-11.825832 2.5754,3.284952 h -5.86035 v -3.284952 m -14.4538,11.825832 a 1.9709719,1.9709719 0 0 1 -1.97097,-1.970972 1.9709719,1.9709719 0 0 1 1.97097,-1.970972 1.9709719,1.9709719 0 0 1 1.97097,1.970972 1.9709719,1.9709719 0 0 1 -1.97097,1.970972 m 18.39574,-13.796803 h -3.94194 v -5.255929 h -18.39574 c -1.45852,0 -2.62797,1.169448 -2.62797,2.627964 v 14.453796 h 2.62797 a 3.9419437,3.9419437 0 0 0 3.94194,3.941943 3.9419437,3.9419437 0 0 0 3.94195,-3.941943 h 7.88388 a 3.9419437,3.9419437 0 0 0 3.94195,3.941943 3.9419437,3.9419437 0 0 0 3.94194,-3.941943 h 2.62796 v -6.569908 z"
       id="path13612"
       style="display:inline;stroke-width:1.31398" />
    <path
       style="fill:#00eae0;fill-opacity:0.307446;stroke:none;stroke-width:1.31398px;stroke-linecap:butt;stroke-linejoin:miter;stroke-opacity:1"
       d="M 141.51566,88.663569 H 84.133727 l 70.916183,-41.929002 0.9639,1.668216 z"
       id="path2053"
       sodipodi:nodetypes="ccccc" />
    <path
       d="m 161.03401,43.019222 c -0.14501,-0.01142 -0.29763,0.02285 -0.43877,0.09918 l -3.30033,1.907707 c -0.36626,0.213647 -0.48838,0.686775 -0.27855,1.045421 l 0.57231,0.988195 c 0.20987,0.370083 0.67532,0.492203 1.04161,0.28233 l 0.68677,-0.396802 c 0.103,0.175507 0.25561,0.316696 0.44259,0.396802 v 2.905859 h 0.7631 V 47.34205 c 0.34719,-0.152612 0.57231,-0.495977 0.57231,-0.866096 0,-0.175506 -0.0457,-0.33959 -0.12972,-0.484554 l 0.9653,-0.557047 c 0.37008,-0.213697 0.49602,-0.675333 0.28233,-1.045426 l -0.57232,-0.98819 c -0.12971,-0.228943 -0.36248,-0.358661 -0.60665,-0.381556 m -4.55179,3.140087 -1.6101,0.267084 0.28616,0.496027 0.76308,1.320132 0.28615,0.495978 1.0378,-1.259088 z"
       id="path2"
       style="stroke-width:0.38154"
       sodipodi:nodetypes="cccccccccccscccccccccccc" />
    <path
       d="m 161.25961,52.770918 a 0.96705289,0.96705289 0 0 1 -0.96705,-0.967049 c 0,-0.536715 0.43519,-0.967054 0.96705,-0.967054 0.53672,0 0.96705,0.430324 0.96705,0.967054 a 0.96705289,0.96705289 0 0 1 -0.96705,0.967049 m 0,2.417634 a 0.96705289,0.96705289 0 0 1 -0.96705,-0.967053 c 0,-0.536715 0.43519,-0.967054 0.96705,-0.967054 0.53672,0 0.96705,0.430324 0.96705,0.967054 a 0.96705289,0.96705289 0 0 1 -0.96705,0.967053 m 0,2.41763 a 0.96705289,0.96705289 0 0 1 -0.96705,-0.967049 c 0,-0.536715 0.43519,-0.967054 0.96705,-0.967054 0.53672,0 0.96705,0.430324 0.96705,0.967054 a 0.96705289,0.96705289 0 0 1 -0.96705,0.967049 m 3.86822,-4.351737 h -1.45058 v -0.551217 c 0.83166,-0.21757 1.45058,-0.967053 1.45058,-1.866413 h -1.45058 v -0.483512 a 0.48352644,0.48352644 0 0 0 -0.48352,-0.483512 h -3.86821 a 0.48352644,0.48352644 0 0 0 -0.48351,0.483512 v 0.483512 h -1.45058 c 0,0.89936 0.61892,1.648823 1.45058,1.866413 v 0.551217 h -1.45058 c 0,0.899359 0.61892,1.648827 1.45058,1.866413 v 0.551221 h -1.45058 c 0,0.899359 0.61892,1.648823 1.45058,1.866413 v 0.551222 a 0.48352644,0.48352644 0 0 0 0.48351,0.483512 h 3.86821 a 0.48352644,0.48352644 0 0 0 0.48352,-0.483512 v -0.551222 c 0.83166,-0.21757 1.45058,-0.967054 1.45058,-1.866413 h -1.45058 v -0.551221 c 0.83166,-0.217571 1.45058,-0.967054 1.45058,-1.866413 z"
       id="path2-3"
       style="stroke-width:0.483526" />
    <rect
       style="fill:#000000;fill-opacity:0.99985;stroke:none;stroke-width:1.53145;stroke-linecap:round;stroke-linejoin:round;stroke-opacity:1"
       id="rect3106"
       width="1.2630358"
       height="29.629877"
       x="160.53424"
       y="58.208099" />
  </g>
</svg>
