<?xml version="1.0" encoding="UTF-8" standalone="no"?>
<!-- Created with Inkscape (http://www.inkscape.org/) -->

<svg
   width="19.549091mm"
   height="9.1913805mm"
   viewBox="0 0 19.549091 9.1913805"
   version="1.1"
   id="svg5"
   inkscape:version="1.1 (c4e8f9ed74, 2021-05-24)"
   sodipodi:docname="scanCars.svg"
   inkscape:export-filename="_scanCars.png"
   inkscape:export-xdpi="649.41278"
   inkscape:export-ydpi="649.41278"
   xmlns:inkscape="http://www.inkscape.org/namespaces/inkscape"
   xmlns:sodipodi="http://sodipodi.sourceforge.net/DTD/sodipodi-0.dtd"
   xmlns="http://www.w3.org/2000/svg"
   xmlns:svg="http://www.w3.org/2000/svg">
  <sodipodi:namedview
     id="namedview7"
     pagecolor="#ffffff"
     bordercolor="#666666"
     borderopacity="1.0"
     inkscape:pageshadow="2"
     inkscape:pageopacity="0.0"
     inkscape:pagecheckerboard="0"
     inkscape:document-units="mm"
     showgrid="false"
     inkscape:zoom="7.3273245"
     inkscape:cx="52.33834"
     inkscape:cy="33.368251"
     inkscape:window-width="2502"
     inkscape:window-height="1382"
     inkscape:window-x="1949"
     inkscape:window-y="29"
     inkscape:window-maximized="1"
     inkscape:current-layer="layer1"
     inkscape:object-paths="true"
     inkscape:snap-intersection-paths="true"
     fit-margin-top="0"
     fit-margin-left="0"
     fit-margin-right="0"
     fit-margin-bottom="0" />
  <defs
     id="defs2" />
  <g
     inkscape:label="Layer 1"
     inkscape:groupmode="layer"
     id="layer1"
     transform="translate(-68.042576,-43.017073)">
    <path
       d="m 72.011326,49.006955 h -2.645833 l -1.322917,1.5875 v 0.79375 h 0.529167 a 0.79375,0.79375 0 0 0 0.79375,0.79375 0.79375,0.79375 0 0 0 0.79375,-0.79375 h 1.5875 a 0.79375,0.79375 0 0 0 0.79375,0.79375 0.79375,0.79375 0 0 0 0.79375,-0.79375 h 0.529167 v -0.79375 c 0,-0.293687 -0.23548,-0.529167 -0.529167,-0.529167 h -0.529167 l -0.79375,-1.058333 m -2.513541,0.396875 h 1.058333 v 0.661458 h -1.5875 l 0.529167,-0.661458 m 1.455208,0 h 0.926042 l 0.518583,0.661458 H 70.952993 V 49.40383 m -1.5875,1.5875 a 0.396875,0.396875 0 0 1 0.396875,0.396875 0.396875,0.396875 0 0 1 -0.396875,0.396875 0.396875,0.396875 0 0 1 -0.396875,-0.396875 0.396875,0.396875 0 0 1 0.396875,-0.396875 m 3.175,0 a 0.396875,0.396875 0 0 1 0.396875,0.396875 0.396875,0.396875 0 0 1 -0.396875,0.396875 0.396875,0.396875 0 0 1 -0.396875,-0.396875 0.396875,0.396875 0 0 1 0.396875,-0.396875 z"
       id="path13603"
       style="display:inline;stroke-width:0.264583" />
    <path
       d="m 80.155827,51.78508 a 0.396875,0.396875 0 0 1 -0.396875,-0.396875 0.396875,0.396875 0 0 1 0.396875,-0.396875 0.396875,0.396875 0 0 1 0.396875,0.396875 0.396875,0.396875 0 0 1 -0.396875,0.396875 m 0.396875,-2.38125 0.518583,0.661458 H 79.891244 V 49.40383 m -2.910417,2.38125 a 0.396875,0.396875 0 0 1 -0.396875,-0.396875 0.396875,0.396875 0 0 1 0.396875,-0.396875 0.396875,0.396875 0 0 1 0.396875,0.396875 0.396875,0.396875 0 0 1 -0.396875,0.396875 m 3.704167,-2.778125 h -0.79375 v -1.058334 h -3.704167 c -0.293688,0 -0.529167,0.23548 -0.529167,0.529167 v 2.910417 h 0.529167 a 0.79375,0.79375 0 0 0 0.79375,0.79375 0.79375,0.79375 0 0 0 0.79375,-0.79375 h 1.5875 a 0.79375,0.79375 0 0 0 0.79375,0.79375 0.79375,0.79375 0 0 0 0.79375,-0.79375 h 0.529167 v -1.322917 z"
       id="path13612"
       style="display:inline;stroke-width:0.264583" />
    <path
       style="fill:#00eae0;fill-opacity:0.307446;stroke:none;stroke-width:0.264583px;stroke-linecap:butt;stroke-linejoin:miter;stroke-opacity:1"
       d="M 82.83712,52.208454 H 71.282691 l 14.279687,-8.442826 0.19409,0.335912 z"
       id="path2053"
       sodipodi:nodetypes="ccccc" />
    <path
       d="m 86.767336,43.017506 c -0.0292,-0.0023 -0.05993,0.0046 -0.08835,0.01997 l -0.664555,0.384136 c -0.07375,0.04302 -0.09834,0.138289 -0.05609,0.210506 l 0.115241,0.198983 c 0.04226,0.07452 0.135983,0.09911 0.209738,0.05685 l 0.138289,-0.0799 c 0.02074,0.03534 0.05147,0.06377 0.08912,0.0799 v 0.585124 h 0.153657 V 43.88795 c 0.06991,-0.03073 0.115241,-0.09987 0.115241,-0.174397 0,-0.03534 -0.0092,-0.06838 -0.02612,-0.09757 l 0.194372,-0.112167 c 0.07452,-0.04303 0.09988,-0.135985 0.05685,-0.210507 l -0.115241,-0.198982 c -0.02612,-0.0461 -0.07299,-0.07222 -0.122155,-0.07683 m -0.916549,0.632288 -0.32421,0.05378 0.05762,0.09988 0.153654,0.265822 0.05762,0.09987 0.208971,-0.25353 z"
       id="path2"
       style="stroke-width:0.0768269"
       sodipodi:nodetypes="cccccccccccscccccccccccc" />
    <path
       d="m 86.812763,44.981108 a 0.19472582,0.19472582 0 0 1 -0.194726,-0.194725 c 0,-0.108073 0.08763,-0.194726 0.194726,-0.194726 0.108073,0 0.194726,0.08665 0.194726,0.194726 a 0.19472582,0.19472582 0 0 1 -0.194726,0.194725 m 0,0.486815 a 0.19472582,0.19472582 0 0 1 -0.194726,-0.194726 c 0,-0.108073 0.08763,-0.194726 0.194726,-0.194726 0.108073,0 0.194726,0.08665 0.194726,0.194726 a 0.19472582,0.19472582 0 0 1 -0.194726,0.194726 m 0,0.486814 a 0.19472582,0.19472582 0 0 1 -0.194726,-0.194725 c 0,-0.108073 0.08763,-0.194726 0.194726,-0.194726 0.108073,0 0.194726,0.08665 0.194726,0.194726 a 0.19472582,0.19472582 0 0 1 -0.194726,0.194725 m 0.778904,-0.876266 h -0.292089 v -0.110993 c 0.167464,-0.04381 0.292089,-0.194726 0.292089,-0.375821 h -0.292089 v -0.09736 a 0.09736291,0.09736291 0 0 0 -0.09736,-0.09736 h -0.778903 a 0.09736291,0.09736291 0 0 0 -0.09736,0.09736 v 0.09736 h -0.292089 c 0,0.181095 0.124625,0.332007 0.292089,0.375821 v 0.110993 h -0.292089 c 0,0.181095 0.124625,0.332008 0.292089,0.375821 v 0.110994 h -0.292089 c 0,0.181095 0.124625,0.332007 0.292089,0.375821 v 0.110994 a 0.09736291,0.09736291 0 0 0 0.09736,0.09736 h 0.778903 a 0.09736291,0.09736291 0 0 0 0.09736,-0.09736 v -0.110994 c 0.167464,-0.04381 0.292089,-0.194726 0.292089,-0.375821 h -0.292089 v -0.110994 c 0.167464,-0.04381 0.292089,-0.194726 0.292089,-0.375821 z"
       id="path2-3"
       style="stroke-width:0.0973628" />
    <rect
       style="fill:#000000;fill-opacity:0.99985;stroke:none;stroke-width:0.308372;stroke-linecap:round;stroke-linejoin:round;stroke-opacity:1"
       id="rect3106"
       width="0.25432494"
       height="5.9662738"
       x="86.666702"
       y="46.075939" />
  </g>
</svg>
