<?xml version="1.0" encoding="UTF-8" standalone="no"?>
<!-- Created with Inkscape (http://www.inkscape.org/) -->

<svg
   width="50.642307mm"
   height="54.932178mm"
   viewBox="0 0 50.642307 54.932178"
   version="1.1"
   id="svg5"
   inkscape:version="1.1.1 (3bf5ae0d25, 2021-09-20)"
   sodipodi:docname="Zeichnung.svg"
   xmlns:inkscape="http://www.inkscape.org/namespaces/inkscape"
   xmlns:sodipodi="http://sodipodi.sourceforge.net/DTD/sodipodi-0.dtd"
   xmlns="http://www.w3.org/2000/svg"
   xmlns:svg="http://www.w3.org/2000/svg">
  <sodipodi:namedview
     id="namedview7"
     pagecolor="#ffffff"
     bordercolor="#666666"
     borderopacity="1.0"
     inkscape:pageshadow="2"
     inkscape:pageopacity="0.0"
     inkscape:pagecheckerboard="0"
     inkscape:document-units="mm"
     showgrid="false"
     inkscape:snap-global="false"
     inkscape:snap-bbox="true"
     inkscape:snap-smooth-nodes="true"
     inkscape:snap-midpoints="true"
     inkscape:snap-intersection-paths="true"
     inkscape:object-paths="true"
     inkscape:snap-bbox-midpoints="true"
     inkscape:snap-bbox-edge-midpoints="true"
     inkscape:bbox-nodes="true"
     inkscape:bbox-paths="true"
     inkscape:zoom="4.4328844"
     inkscape:cx="138.17189"
     inkscape:cy="117.98187"
     inkscape:window-width="1368"
     inkscape:window-height="850"
     inkscape:window-x="-6"
     inkscape:window-y="-6"
     inkscape:window-maximized="1"
     inkscape:current-layer="layer2"
     fit-margin-top="0"
     fit-margin-left="0"
     fit-margin-right="0"
     fit-margin-bottom="0" />
  <defs
     id="defs2" />
  <g
     inkscape:label="V1"
     inkscape:groupmode="layer"
     id="layer1"
     style="display:inline"
     sodipodi:insensitive="true"
     transform="translate(9.2113557e-5,9.2113557e-5)">
    <path
       id="path2442"
       style="fill:#e4f6fc;fill-opacity:1;stroke:none;stroke-width:0.47044;stroke-opacity:1"
       d="M 5.0017894,0.9948128 0.74158444,5.2209114 V 25.524581 H 45.898 l 4.373377,-4.338753 V 0.9948128 Z" />
    <path
       id="rect31"
       style="fill:#ffffff;fill-opacity:1;stroke:#5e5e5e;stroke-width:1.77804;stroke-opacity:1"
       d="M 16.990234,0.88867188 0.88867188,16.861328 V 93.599609 H 171.55859 l 16.5293,-16.398437 V 0.88867188 Z"
       transform="scale(0.26458333)" />
    <path
       style="fill:#d7f2fd;fill-opacity:1;stroke:#000000;stroke-width:0.264583px;stroke-linecap:butt;stroke-linejoin:miter;stroke-opacity:1"
       d="m 49.76492,15.458802 v 4.967341 l -4.373377,4.338753 H 0.23512777 v -7.371668 c 0,0 5.57991113,-4.93499 11.33629623,-4.93499 6.565515,0 16.830023,7.728625 22.840055,7.728625 6.010032,0 15.353441,-4.728061 15.353441,-4.728061"
       id="path12209"
       sodipodi:nodetypes="cccccssc" />
    <text
       xml:space="preserve"
       style="font-style:normal;font-weight:normal;font-size:10.5833px;line-height:1.25;font-family:sans-serif;fill:#000000;fill-opacity:1;stroke:none;stroke-width:0.264583"
       x="1.7725985"
       y="22.621733"
       id="text3912"><tspan
         sodipodi:role="line"
         id="tspan3910"
         style="font-style:normal;font-variant:normal;font-weight:300;font-stretch:normal;font-size:3.52778px;font-family:Trueno;-inkscape-font-specification:'Trueno, Light';font-variant-ligatures:normal;font-variant-caps:normal;font-variant-numeric:normal;font-variant-east-asian:normal;fill:#717171;fill-opacity:1;stroke-width:0.264583"
         x="1.7725985"
         y="22.621733">5s ago</tspan></text>
    <text
       xml:space="preserve"
       style="font-style:normal;font-weight:normal;font-size:10.5833px;line-height:1.25;font-family:sans-serif;fill:#000000;fill-opacity:1;stroke:none;stroke-width:0.264583"
       x="3.2075589"
       y="5.9086618"
       id="text10390"><tspan
         sodipodi:role="line"
         id="tspan10388"
         style="font-style:normal;font-variant:normal;font-weight:300;font-stretch:normal;font-size:5.29167px;font-family:Trueno;-inkscape-font-specification:'Trueno, Light';font-variant-ligatures:normal;font-variant-caps:normal;font-variant-numeric:normal;font-variant-east-asian:normal;stroke-width:0.264583"
         x="3.2075589"
         y="5.9086618">&lt;CUSTOM NAME&gt;</tspan></text>
    <path
       id="path15623"
       style="fill:#e4f6fc;fill-opacity:1;stroke:none;stroke-width:0.47044;stroke-opacity:1"
       d="M 5.0017894,0.9948128 0.74158444,5.2209114 V 25.524581 H 45.898 l 4.373377,-4.338753 V 0.9948128 Z" />
    <path
       id="path15625"
       style="fill:#ffffff;fill-opacity:1;stroke:#5e5e5e;stroke-width:1.77804;stroke-opacity:1"
       d="M 16.990234,0.88867188 0.88867188,16.861328 V 93.599609 H 171.55859 l 16.5293,-16.398437 V 0.88867188 Z"
       transform="scale(0.26458333)" />
    <path
       style="fill:#d7f2fd;fill-opacity:1;stroke:#000000;stroke-width:0.264583px;stroke-linecap:butt;stroke-linejoin:miter;stroke-opacity:1"
       d="m 49.76492,15.458802 v 4.967341 l -4.373377,4.338753 H 0.23512777 v -7.371668 c 0,0 5.57991113,-4.93499 11.33629623,-4.93499 6.565515,0 16.830023,7.728625 22.840055,7.728625 6.010032,0 15.353441,-4.728061 15.353441,-4.728061"
       id="path15627"
       sodipodi:nodetypes="cccccssc" />
    <text
       xml:space="preserve"
       style="font-style:normal;font-weight:normal;font-size:10.5833px;line-height:1.25;font-family:sans-serif;fill:#000000;fill-opacity:1;stroke:none;stroke-width:0.264583"
       x="1.7725985"
       y="22.621733"
       id="text15631"><tspan
         sodipodi:role="line"
         id="tspan15629"
         style="font-style:normal;font-variant:normal;font-weight:300;font-stretch:normal;font-size:3.52778px;font-family:Trueno;-inkscape-font-specification:'Trueno, Light';font-variant-ligatures:normal;font-variant-caps:normal;font-variant-numeric:normal;font-variant-east-asian:normal;fill:#717171;fill-opacity:1;stroke-width:0.264583"
         x="1.7725985"
         y="22.621733">5s ago</tspan></text>
    <text
       xml:space="preserve"
       style="font-style:normal;font-weight:normal;font-size:10.5833px;line-height:1.25;font-family:sans-serif;fill:#000000;fill-opacity:1;stroke:none;stroke-width:0.264583"
       x="3.2075589"
       y="5.9086618"
       id="text15635"><tspan
         sodipodi:role="line"
         id="tspan15633"
         style="font-style:normal;font-variant:normal;font-weight:300;font-stretch:normal;font-size:5.29167px;font-family:Trueno;-inkscape-font-specification:'Trueno, Light';font-variant-ligatures:normal;font-variant-caps:normal;font-variant-numeric:normal;font-variant-east-asian:normal;stroke-width:0.264583"
         x="3.2075589"
         y="5.9086618">&lt;CUSTOM NAME&gt;</tspan></text>
  </g>
  <g
     inkscape:groupmode="layer"
     id="layer2"
     inkscape:label="V2"
     style="display:inline"
     transform="translate(9.2113557e-5,9.2113557e-5)">
    <path
       id="path2442-4"
       style="fill:#e4f6fc;fill-opacity:1;stroke:none;stroke-width:0.47044;stroke-opacity:1"
       d="m 5.372628,30.40232 -4.260205,4.226098 v 20.30367 h 45.156416 l 4.373377,-4.338753 V 30.40232 Z" />
    <path
       id="rect31-8"
       style="fill:#ffffff;fill-opacity:1;stroke:#5e5e5e;stroke-width:0.47044;stroke-opacity:1"
       d="m 4.8661713,29.642635 -4.2602049,4.226098 v 20.30367 H 45.762382 L 50.135759,49.83365 V 29.642635 Z" />
    <path
       style="fill:#d7f2fd;fill-opacity:1;stroke:#000000;stroke-width:0.264583px;stroke-linecap:butt;stroke-linejoin:miter;stroke-opacity:1"
       d="m 50.135759,44.866309 v 4.967341 l -4.373377,4.338753 H 0.6059664 v -7.371668 c 0,0 5.5799111,-4.93499 11.3362966,-4.93499 6.565515,0 16.830023,7.728625 22.840055,7.728625 6.010032,0 15.353441,-4.728061 15.353441,-4.728061"
       id="path12209-3"
       sodipodi:nodetypes="cccccssc" />
    <text
       xml:space="preserve"
       style="font-style:normal;font-weight:normal;font-size:10.5833px;line-height:1.25;font-family:sans-serif;fill:#000000;fill-opacity:1;stroke:none;stroke-width:0.264583"
       x="2.1434374"
       y="52.02924"
       id="text3912-9"><tspan
         sodipodi:role="line"
         id="tspan3910-1"
         style="font-style:normal;font-variant:normal;font-weight:300;font-stretch:normal;font-size:3.52778px;font-family:Trueno;-inkscape-font-specification:'Trueno, Light';font-variant-ligatures:normal;font-variant-caps:normal;font-variant-numeric:normal;font-variant-east-asian:normal;fill:#717171;fill-opacity:1;stroke-width:0.264583"
         x="2.1434374"
         y="52.02924">5s ago</tspan></text>
    <text
       xml:space="preserve"
       style="font-style:normal;font-weight:normal;font-size:10.5833px;line-height:1.25;font-family:sans-serif;fill:#000000;fill-opacity:1;stroke:none;stroke-width:0.264583"
       x="3.5783973"
       y="35.31617"
       id="text10390-5"><tspan
         sodipodi:role="line"
         id="tspan10388-6"
         style="font-style:normal;font-variant:normal;font-weight:300;font-stretch:normal;font-size:5.29167px;font-family:Trueno;-inkscape-font-specification:'Trueno, Light';font-variant-ligatures:normal;font-variant-caps:normal;font-variant-numeric:normal;font-variant-east-asian:normal;stroke-width:0.264583"
         x="3.5783973"
         y="35.31617">&lt;CUSTOM NAME&gt;</tspan></text>
    <path
       id="path15623-4"
       style="fill:#dddddd;fill-opacity:1;stroke:none;stroke-width:0.47044;stroke-opacity:1"
       d="m 5.372628,30.40232 -4.260205,4.226098 v 20.30367 h 45.156416 l 4.373377,-4.338753 V 30.40232 Z" />
    <path
       id="path15625-7"
       style="fill:#ffffff;fill-opacity:1;stroke:#5e5e5e;stroke-width:0.47044;stroke-opacity:1"
       d="m 4.8661713,29.642635 -4.2602049,4.226098 v 20.30367 H 45.762382 L 50.135759,49.83365 V 29.642635 Z" />
    <text
       xml:space="preserve"
       style="font-style:normal;font-weight:normal;font-size:10.5833px;line-height:1.25;font-family:sans-serif;fill:#000000;fill-opacity:1;stroke:none;stroke-width:0.264583"
       x="2.1434374"
       y="52.02924"
       id="text15631-9"><tspan
         sodipodi:role="line"
         id="tspan15629-4"
         style="font-style:normal;font-variant:normal;font-weight:300;font-stretch:normal;font-size:3.52778px;font-family:Trueno;-inkscape-font-specification:'Trueno, Light';font-variant-ligatures:normal;font-variant-caps:normal;font-variant-numeric:normal;font-variant-east-asian:normal;fill:#717171;fill-opacity:1;stroke-width:0.264583"
         x="2.1434374"
         y="52.02924">5s ago</tspan></text>
    <text
       xml:space="preserve"
       style="font-style:normal;font-weight:normal;font-size:10.5833px;line-height:1.25;font-family:sans-serif;fill:#000000;fill-opacity:1;stroke:none;stroke-width:0.264583"
       x="3.5783973"
       y="35.31617"
       id="text15635-8"><tspan
         sodipodi:role="line"
         id="tspan15633-9"
         style="font-style:normal;font-variant:normal;font-weight:300;font-stretch:normal;font-size:5.29167px;font-family:Trueno;-inkscape-font-specification:'Trueno, Light';font-variant-ligatures:normal;font-variant-caps:normal;font-variant-numeric:normal;font-variant-east-asian:normal;stroke-width:0.264583"
         x="3.5783973"
         y="35.31617">&lt;CUSTOM NAME&gt;</tspan></text>
    <g
       id="g23027"
       transform="translate(3.2075591,-11.310866)">
      <path
         d="m 42.522201,50.497856 h -2.645833 l -1.322917,1.5875 v 0.79375 h 0.529167 a 0.79375,0.79375 0 0 0 0.79375,0.79375 0.79375,0.79375 0 0 0 0.79375,-0.79375 h 1.5875 a 0.79375,0.79375 0 0 0 0.79375,0.79375 0.79375,0.79375 0 0 0 0.79375,-0.79375 h 0.529167 v -0.79375 c 0,-0.293687 -0.23548,-0.529167 -0.529167,-0.529167 h -0.529167 l -0.79375,-1.058333 m -2.513541,0.396875 h 1.058333 v 0.661458 h -1.5875 l 0.529167,-0.661458 m 1.455208,0 h 0.926042 l 0.518583,0.661458 h -1.444625 v -0.661458 m -1.5875,1.5875 a 0.396875,0.396875 0 0 1 0.396875,0.396875 0.396875,0.396875 0 0 1 -0.396875,0.396875 0.396875,0.396875 0 0 1 -0.396875,-0.396875 0.396875,0.396875 0 0 1 0.396875,-0.396875 m 3.175,0 a 0.396875,0.396875 0 0 1 0.396875,0.396875 0.396875,0.396875 0 0 1 -0.396875,0.396875 0.396875,0.396875 0 0 1 -0.396875,-0.396875 0.396875,0.396875 0 0 1 0.396875,-0.396875 z"
         id="path13603"
         style="display:inline;fill:#2fc300;fill-opacity:1;stroke:none;stroke-width:0.264583;stroke-opacity:1" />
      <path
         d="m 36.149287,50.497856 h -2.645833 l -1.322917,1.5875 v 0.79375 h 0.529167 a 0.79375,0.79375 0 0 0 0.79375,0.79375 0.79375,0.79375 0 0 0 0.79375,-0.79375 h 1.5875 a 0.79375,0.79375 0 0 0 0.79375,0.79375 0.79375,0.79375 0 0 0 0.79375,-0.79375 h 0.529167 v -0.79375 c 0,-0.293687 -0.23548,-0.529167 -0.529167,-0.529167 h -0.529167 l -0.79375,-1.058333 m -2.513541,0.396875 h 1.058333 v 0.661458 h -1.5875 l 0.529167,-0.661458 m 1.455208,0 h 0.926042 l 0.518583,0.661458 h -1.444625 v -0.661458 m -1.5875,1.5875 a 0.396875,0.396875 0 0 1 0.396875,0.396875 0.396875,0.396875 0 0 1 -0.396875,0.396875 0.396875,0.396875 0 0 1 -0.396875,-0.396875 0.396875,0.396875 0 0 1 0.396875,-0.396875 m 3.175,0 a 0.396875,0.396875 0 0 1 0.396875,0.396875 0.396875,0.396875 0 0 1 -0.396875,0.396875 0.396875,0.396875 0 0 1 -0.396875,-0.396875 0.396875,0.396875 0 0 1 0.396875,-0.396875 z"
         id="path16639"
         style="display:inline;fill:#d8e100;fill-opacity:1;stroke-width:0.264583" />
      <path
         d="m 29.691964,50.497856 h -2.645833 l -1.322917,1.5875 v 0.79375 h 0.529167 a 0.79375,0.79375 0 0 0 0.79375,0.79375 0.79375,0.79375 0 0 0 0.79375,-0.79375 h 1.5875 a 0.79375,0.79375 0 0 0 0.79375,0.79375 0.79375,0.79375 0 0 0 0.79375,-0.79375 h 0.529167 v -0.79375 c 0,-0.293687 -0.23548,-0.529167 -0.529167,-0.529167 h -0.529167 l -0.79375,-1.058333 m -2.513541,0.396875 h 1.058333 v 0.661458 h -1.5875 l 0.529167,-0.661458 m 1.455208,0 h 0.926042 l 0.518583,0.661458 h -1.444625 v -0.661458 m -1.5875,1.5875 a 0.396875,0.396875 0 0 1 0.396875,0.396875 0.396875,0.396875 0 0 1 -0.396875,0.396875 0.396875,0.396875 0 0 1 -0.396875,-0.396875 0.396875,0.396875 0 0 1 0.396875,-0.396875 m 3.175,0 a 0.396875,0.396875 0 0 1 0.396875,0.396875 0.396875,0.396875 0 0 1 -0.396875,0.396875 0.396875,0.396875 0 0 1 -0.396875,-0.396875 0.396875,0.396875 0 0 1 0.396875,-0.396875 z"
         id="path16641"
         style="display:inline;fill:#d39500;fill-opacity:1;stroke-width:0.264583" />
      <path
         d="m 23.234641,50.497856 h -2.645833 l -1.322917,1.5875 v 0.79375 h 0.529167 a 0.79375,0.79375 0 0 0 0.79375,0.79375 0.79375,0.79375 0 0 0 0.79375,-0.79375 h 1.5875 a 0.79375,0.79375 0 0 0 0.79375,0.79375 0.79375,0.79375 0 0 0 0.79375,-0.79375 h 0.529167 v -0.79375 c 0,-0.293687 -0.23548,-0.529167 -0.529167,-0.529167 h -0.529167 l -0.79375,-1.058333 M 20.7211,50.894731 h 1.058333 v 0.661458 h -1.5875 L 20.7211,50.894731 m 1.455208,0 h 0.926042 l 0.518583,0.661458 h -1.444625 v -0.661458 m -1.5875,1.5875 a 0.396875,0.396875 0 0 1 0.396875,0.396875 0.396875,0.396875 0 0 1 -0.396875,0.396875 0.396875,0.396875 0 0 1 -0.396875,-0.396875 0.396875,0.396875 0 0 1 0.396875,-0.396875 m 3.175,0 a 0.396875,0.396875 0 0 1 0.396875,0.396875 0.396875,0.396875 0 0 1 -0.396875,0.396875 0.396875,0.396875 0 0 1 -0.396875,-0.396875 0.396875,0.396875 0 0 1 0.396875,-0.396875 z"
         id="path16643"
         style="display:inline;fill:#d30400;fill-opacity:1;stroke-width:0.264583" />
    </g>
    <text
       xml:space="preserve"
       style="font-style:normal;font-weight:normal;font-size:9.2925px;line-height:1.25;font-family:sans-serif;fill:#000000;fill-opacity:1;stroke:none;stroke-width:0.232313"
       x="2.0848432"
       y="42.206718"
       id="text20015"><tspan
         sodipodi:role="line"
         id="tspan20013"
         style="font-style:normal;font-variant:normal;font-weight:300;font-stretch:normal;font-size:4.64627px;font-family:Trueno;-inkscape-font-specification:'Trueno, Light';font-variant-ligatures:normal;font-variant-caps:normal;font-variant-numeric:normal;font-variant-east-asian:normal;stroke-width:0.232313"
         x="2.0848432"
         y="42.206718">Current</tspan></text>
    <text
       xml:space="preserve"
       style="font-style:normal;font-weight:normal;font-size:9.2925px;line-height:1.25;font-family:sans-serif;fill:#000000;fill-opacity:1;stroke:none;stroke-width:0.232313"
       x="2.0848432"
       y="47.102467"
       id="text23031"><tspan
         sodipodi:role="line"
         id="tspan23029"
         style="font-style:normal;font-variant:normal;font-weight:300;font-stretch:normal;font-size:4.64627px;font-family:Trueno;-inkscape-font-specification:'Trueno, Light';font-variant-ligatures:normal;font-variant-caps:normal;font-variant-numeric:normal;font-variant-east-asian:normal;stroke-width:0.232313"
         x="2.0848432"
         y="47.102467">Time loss</tspan></text>
    <text
       xml:space="preserve"
       style="font-style:normal;font-weight:normal;font-size:9.2925px;line-height:1.25;font-family:sans-serif;fill:#000000;fill-opacity:1;stroke:none;stroke-width:0.232313"
       x="31.206106"
       y="47.102467"
       id="text25773"><tspan
         sodipodi:role="line"
         id="tspan25771"
         style="font-style:normal;font-variant:normal;font-weight:300;font-stretch:normal;font-size:4.64627px;font-family:Trueno;-inkscape-font-specification:'Trueno, Light';font-variant-ligatures:normal;font-variant-caps:normal;font-variant-numeric:normal;font-variant-east-asian:normal;stroke-width:0.232313"
         x="31.206106"
         y="47.102467">~ 2 min</tspan></text>
  </g>
</svg>
