<?xml version="1.0" encoding="UTF-8" standalone="no"?>
<!-- Created with Inkscape (http://www.inkscape.org/) -->

<svg
   width="51.179474mm"
   height="81.220543mm"
   viewBox="0 0 51.179473 81.220543"
   version="1.1"
   id="svg5"
   inkscape:version="1.1.1 (3bf5ae0d25, 2021-09-20, custom)"
   sodipodi:docname="mariaDBandInfluxDB.svg"
   inkscape:export-filename="mariaDBandInfluxDB.png"
   inkscape:export-xdpi="625.45752"
   inkscape:export-ydpi="625.45752"
   xmlns:inkscape="http://www.inkscape.org/namespaces/inkscape"
   xmlns:sodipodi="http://sodipodi.sourceforge.net/DTD/sodipodi-0.dtd"
   xmlns="http://www.w3.org/2000/svg"
   xmlns:svg="http://www.w3.org/2000/svg">
  <sodipodi:namedview
     id="namedview7"
     pagecolor="#ffffff"
     bordercolor="#666666"
     borderopacity="1.0"
     inkscape:pageshadow="2"
     inkscape:pageopacity="0.0"
     inkscape:pagecheckerboard="0"
     inkscape:document-units="mm"
     showgrid="false"
     inkscape:zoom="2.8284271"
     inkscape:cx="72.301668"
     inkscape:cy="105.18213"
     inkscape:window-width="2502"
     inkscape:window-height="1382"
     inkscape:window-x="1949"
     inkscape:window-y="29"
     inkscape:window-maximized="1"
     inkscape:current-layer="g977"
     inkscape:snap-global="false"
     fit-margin-top="0"
     fit-margin-left="0"
     fit-margin-right="0"
     fit-margin-bottom="0" />
  <defs
     id="defs2">
	<linearGradient
   id="symbol_1_"
   gradientUnits="userSpaceOnUse"
   x1="205.32381"
   y1="125"
   x2="483.08841"
   y2="125"
   gradientTransform="matrix(0.11956099,0.11215789,-0.11215789,0.11956099,32.948058,88.494343)">
		<stop
   offset="0"
   style="stop-color:#4591ED"
   id="stop1059" />

		<stop
   offset="1"
   style="stop-color:#00C9FF"
   id="stop1061" />

	</linearGradient>

	
	
<inkscape:path-effect
   effect="fill_between_many"
   method="originald"
   linkedpaths="#path3482,0,1"
   id="path-effect3593"
   join="true"
   close="true"
   autoreverse="true"
   is_visible="true"
   lpeversion="0"
   applied="false" />
<clipPath
   clipPathUnits="userSpaceOnUse"
   id="clipPath7557">
  <rect
     style="fill:#f37e7d;fill-opacity:0.622723;stroke:none;stroke-width:6.93901;stroke-linecap:round;stroke-miterlimit:4;stroke-dasharray:none;stroke-opacity:1"
     id="rect7559"
     width="109.88856"
     height="210.16873"
     x="442.54028"
     y="55.175171"
     ry="3.1491871"
     transform="rotate(27.544385)" />
</clipPath>
<clipPath
   clipPathUnits="userSpaceOnUse"
   id="clipPath7561">
  <rect
     style="fill:#f37e7d;fill-opacity:0.622723;stroke:none;stroke-width:6.93901;stroke-linecap:round;stroke-miterlimit:4;stroke-dasharray:none;stroke-opacity:1"
     id="rect7563"
     width="109.88856"
     height="210.16873"
     x="442.54028"
     y="55.175171"
     ry="3.1491871"
     transform="rotate(27.544385)" />
</clipPath>
</defs>
  <g
     inkscape:label="Layer 1"
     inkscape:groupmode="layer"
     id="layer1"
     transform="translate(-52.116492,-136.74935)">
    <g
       transform="matrix(0.01297335,0.20570883,-0.28793365,0.00926857,202.9255,408.2879)"
       id="g959">
      <g
         transform="translate(1.26)"
         style="fill:#a57242"
         id="g935">
        <path
           d="m -1149,341 v 31.2 h -3.94 v -5.35 c -3.57,4.27 -7.64,6.41 -12.2,6.41 -4.59,0 -8.47,-1.63 -11.6,-4.88 -3.14,-3.29 -4.7,-7.19 -4.7,-11.7 0,-4.55 1.59,-8.43 4.76,-11.6 3.17,-3.25 6.98,-4.88 11.4,-4.88 5.1,3e-5 9.23,2.18 12.4,6.53 v -5.7 h 3.94 m -3.7,15.8 c 0,-3.57 -1.2,-6.57 -3.59,-9 -2.39,-2.47 -5.33,-3.7 -8.82,-3.7 -3.45,3e-5 -6.37,1.27 -8.76,3.82 -2.39,2.51 -3.59,5.49 -3.59,8.94 0,3.45 1.22,6.45 3.65,9 2.43,2.51 5.33,3.76 8.7,3.76 3.41,1e-5 6.33,-1.22 8.76,-3.65 2.43,-2.43 3.65,-5.49 3.65,-9.17"
           style="fill:#a57242"
           id="path933" />
      </g>
      <g
         transform="translate(0.505)"
         style="fill:#a57242"
         id="g941">
        <path
           d="m -1139,372 v -42.2 h 8.76 c 6,4e-5 10.4,0.451 13.2,1.35 2.82,0.862 5.25,2.25 7.29,4.17 2.04,1.88 3.61,4.19 4.7,6.94 1.1,2.74 1.65,5.96 1.65,9.64 0,3.65 -0.862,7.09 -2.59,10.3 -1.69,3.21 -4,5.64 -6.94,7.29 -2.9,1.65 -7.09,2.47 -12.6,2.47 h -13.5 m 4.06,-4 h 4.88 c 5.1,1e-5 8.78,-0.255 11.1,-0.764 2.31,-0.51 4.33,-1.51 6.06,-3 1.72,-1.53 3.04,-3.37 3.94,-5.53 0.901,-2.16 1.35,-4.62 1.35,-7.41 0,-2.78 -0.529,-5.35 -1.59,-7.7 -1.02,-2.35 -2.49,-4.29 -4.41,-5.82 -1.92,-1.53 -4.19,-2.55 -6.82,-3.06 -2.59,-0.549 -6.41,-0.823 -11.5,-0.823 h -3 v 34.1"
           style="fill:#a57242"
           id="path937" />
        <path
           d="m -1194,332 c 0,-0.901 0.314,-1.69 0.941,-2.35 0.666,-0.666 1.45,-0.999 2.35,-0.999 0.941,5e-5 1.72,0.333 2.35,0.999 0.666,0.627 1,1.41 1,2.35 0,0.902 -0.333,1.69 -1,2.35 -0.627,0.627 -1.41,0.941 -2.35,0.941 -0.901,4e-5 -1.69,-0.333 -2.35,-0.999 -0.627,-0.666 -0.941,-1.43 -0.941,-2.29 m 1.29,8.7 h 4.06 v 31.2 h -4.06 v -31.2"
           style="fill:#a57242"
           id="path939" />
      </g>
      <g
         style="fill:#a57242"
         id="g945">
        <path
           d="m -1305,372 6,-42.2 h 0.647 l 17.2,34.6 17,-34.6 h 0.647 l 6.06,42.2 h -4.17 l -4.12,-30.2 -14.9,30.2 h -1.06 l -15.1,-30.5 -4.12,30.5 h -4.06"
           style="fill:#a57242"
           id="path943" />
      </g>
      <g
         transform="translate(-0.253)"
         style="fill:#a57242"
         id="g949">
        <path
           d="m -1219,341 v 31.2 h -3.94 v -5.35 c -3.57,4.27 -7.64,6.41 -12.2,6.41 -4.59,0 -8.47,-1.63 -11.6,-4.88 -3.14,-3.29 -4.7,-7.19 -4.7,-11.7 0,-4.55 1.59,-8.43 4.76,-11.6 3.17,-3.25 6.98,-4.88 11.4,-4.88 5.1,3e-5 9.23,2.18 12.4,6.53 v -5.7 h 3.94 m -3.7,15.8 c -10e-5,-3.57 -1.2,-6.57 -3.59,-9 -2.39,-2.47 -5.33,-3.7 -8.82,-3.7 -3.45,3e-5 -6.37,1.27 -8.76,3.82 -2.39,2.51 -3.59,5.49 -3.59,8.94 0,3.45 1.22,6.45 3.65,9 2.43,2.51 5.33,3.76 8.7,3.76 3.41,1e-5 6.33,-1.22 8.76,-3.65 2.43,-2.43 3.64,-5.49 3.65,-9.17"
           style="fill:#a57242"
           id="path947" />
      </g>
      <g
         transform="translate(-1.01)"
         style="fill:#a57242"
         id="g953">
        <path
           d="m -1211,341 h 4.12 v 4.53 c 1.1,-1.84 2.16,-3.19 3.17,-4.06 1.06,-0.862 2.21,-1.29 3.47,-1.29 1.29,3e-5 2.59,0.353 3.88,1.06 l -2.12,3.41 c -0.588,-0.353 -1.2,-0.529 -1.82,-0.529 -1.22,3e-5 -2.37,0.627 -3.47,1.88 -1.06,1.25 -1.84,2.88 -2.35,4.88 -0.51,1.96 -0.764,5.55 -0.764,10.8 v 10.6 h -4.12 v -31.2"
           style="fill:#a57242"
           id="path951" />
      </g>
      <g
         transform="translate(1.01)"
         style="fill:#a57242"
         id="g957">
        <path
           d="m -1096,330 h 8.35 c 4.43,4e-5 7.78,0.902 10.1,2.7 2.31,1.76 3.47,4.31 3.47,7.64 0,1.84 -0.47,3.55 -1.41,5.11 -0.902,1.53 -2.23,2.76 -4,3.7 2.9,0.941 5.1,2.35 6.58,4.23 1.53,1.88 2.29,4.12 2.29,6.7 -1e-4,3.49 -1.27,6.39 -3.82,8.7 -2.55,2.27 -5.84,3.41 -9.88,3.41 h -11.6 v -42.2 m 4.17,4.12 v 13.5 h 2.41 c 3.68,3e-5 6.43,-0.588 8.23,-1.76 1.8,-1.18 2.7,-3.02 2.7,-5.53 0,-4.15 -2.82,-6.23 -8.47,-6.23 h -4.88 m 0,17.8 v 16.2 h 5.23 c 3.02,0 5.23,-0.294 6.64,-0.882 1.45,-0.627 2.63,-1.57 3.53,-2.82 0.901,-1.29 1.35,-2.61 1.35,-3.94 0,-1.33 -0.255,-2.51 -0.764,-3.53 -0.51,-1.02 -1.27,-1.92 -2.29,-2.7 -0.98,-0.784 -2.18,-1.37 -3.59,-1.76 -1.37,-0.392 -3.96,-0.588 -7.76,-0.588 h -2.35"
           style="fill:#a57242"
           id="path955" />
      </g>
    </g>
    <g
       transform="matrix(0.25555621,-0.13328586,0.13328586,0.25555621,-52.969985,131.45273)"
       inkscape:label="Layer 1"
       id="g979">
      <g
         inkscape:export-filename="/mnt/files/documents/monty-program-ab/logos-dbart/MariaDB-seal-flat.png"
         inkscape:export-xdpi="90"
         inkscape:export-ydpi="90"
         id="g977">
        <path
           d="m 429,293 c -2.78,0.0888 -1.9,0.89 -7.91,2.37 -6.06,1.49 -13.5,1.03 -20,3.77 -19.5,8.18 -23.4,36.1 -41.1,46.1 -13.2,7.48 -26.6,8.08 -38.6,11.8 -7.9,2.48 -16.5,7.55 -23.7,13.7 -5.55,4.79 -5.7,9 -11.5,15 -6.21,6.42 -24.7,0.109 -33,9.94 2.7,2.72 3.88,3.49 9.19,2.78 -1.1,2.08 -7.58,3.84 -6.31,6.91 1.34,3.23 17,5.41 31.2,-3.19 6.63,-4.01 11.9,-9.78 22.2,-11.2 13.4,-1.78 28.8,1.14 44.2,3.38 -2.3,6.84 -6.9,11.4 -10.6,16.8 -1.14,1.23 2.3,1.37 6.22,0.625 7.06,-1.74 12.1,-3.15 17.5,-6.25 6.54,-3.81 7.53,-13.6 15.6,-15.7 4.47,6.88 16.6,8.5 24.2,3 -6.62,-1.88 -8.45,-16 -6.22,-22.2 2.12,-5.88 4.21,-15.3 6.34,-23.1 2.29,-8.35 3.13,-18.9 5.91,-23.1 4.17,-6.4 8.78,-8.6 12.8,-12.2 4,-3.61 7.66,-7.12 7.54,-15.4 -0.0387,-2.66 -1.41,-4.14 -3.94,-4.06 z"
           style="fill:#002b64;fill-rule:evenodd"
           inkscape:export-filename="/mnt/files/documents/monty-program-ab/logos/seal-flat.png"
           inkscape:export-xdpi="90"
           inkscape:export-ydpi="90"
           sodipodi:nodetypes="czssccsccssccccsccsssssz"
           id="path961"
           clip-path="url(#clipPath7561)" />
        <path
           d="m 259,405 c 10.1,1.45 16.3,0 24.5,-3.53 6.93,-3.01 13.6,-9.2 21.8,-11.8 12,-3.86 25.2,0.005 38.1,0.775 3.13,0.188 6.24,0.19 9.31,-0.144 4.79,-2.94 4.69,-13.9 9.35,-15 -0.137,15.4 -6.47,24.7 -13.1,33.6 14,-2.46 22.3,-10.5 27.9,-21.3 1.71,-3.27 3.17,-6.78 4.46,-10.5 2,1.53 0.865,6.2 1.87,8.72 9.61,-5.35 15.1,-17.6 18.8,-29.9 4.22,-14.3 5.94,-28.8 8.66,-33 2.65,-4.13 6.78,-6.68 10.6,-9.32 4.28,-3.01 8.1,-6.14 8.76,-11.9 -4.52,-0.418 -5.56,-1.46 -6.23,-3.74 -2.26,1.28 -4.34,1.55 -6.69,1.62 -2.04,0.062 -4.28,-0.029 -7.02,0.252 -22.6,2.32 -25.5,27.3 -40,41.4 -1.06,1.03 -2.2,1.99 -3.4,2.89 -5.08,3.78 -11.3,6.49 -17,8.68 -9.28,3.54 -18.1,3.8 -26.8,6.86 -6.39,2.24 -12.9,5.5 -18.1,9.09 -1.31,0.897 -2.55,1.82 -3.68,2.75 -3.08,2.52 -5.1,5.31 -7.06,8.19 -2.02,2.96 -3.96,6.01 -6.93,8.92 -4.81,4.72 -22.8,1.38 -29.1,5.76 -0.705,0.487 -1.26,1.07 -1.65,1.77 3.45,1.57 5.76,0.606 9.73,1.04 0.521,3.77 -8.19,6.01 -6.9,7.74 z"
           style="fill:#c49a6c"
           inkscape:export-filename="/mnt/files/documents/monty-program-ab/logos/seal-flat.png"
           inkscape:export-xdpi="90"
           inkscape:export-ydpi="90"
           id="path963"
           clip-path="url(#clipPath7557)" />
        <path
           d="m 396,377 c 0.27,4.32 2.78,12.9 4.99,15 -4.34,1.06 -11.8,-0.688 -13.7,-3.75 0.985,-4.42 6.11,-8.46 8.73,-11.2 z"
           clip-rule="evenodd"
           style="fill:#c49a6c;fill-rule:evenodd"
           inkscape:export-filename="/mnt/files/documents/monty-program-ab/logos/seal-flat.png"
           inkscape:export-xdpi="90"
           inkscape:export-ydpi="90"
           id="path965" />
        <path
           d="m 402,309 c 3.2,2.78 9.92,0.549 8.72,-4.98 -4.98,-0.412 -7.86,1.28 -8.72,4.98 z"
           clip-rule="evenodd"
           style="fill:#002b64;fill-rule:evenodd"
           inkscape:export-filename="/mnt/files/documents/monty-program-ab/logos/seal-flat.png"
           inkscape:export-xdpi="90"
           inkscape:export-ydpi="90"
           id="path967" />
        <path
           d="m 424,302 c -0.852,1.79 -2.48,4.09 -2.48,8.64 -0.007,0.781 -0.593,1.32 -0.603,0.112 0.044,-4.45 1.22,-6.37 2.47,-8.89 0.581,-1.04 0.931,-0.608 0.615,0.142 z"
           style="fill:#002b64"
           inkscape:export-filename="/mnt/files/documents/monty-program-ab/logos/seal-flat.png"
           inkscape:export-xdpi="90"
           inkscape:export-ydpi="90"
           id="path969" />
        <path
           d="m 424,302 c -1,1.7 -3.42,4.82 -3.82,9.35 -0.074,0.777 -0.706,1.26 -0.61,0.057 0.436,-4.42 2.37,-7.19 3.84,-9.6 0.666,-0.979 0.979,-0.523 0.597,0.196 z"
           style="fill:#002b64"
           inkscape:export-filename="/mnt/files/documents/monty-program-ab/logos/seal-flat.png"
           inkscape:export-xdpi="90"
           inkscape:export-ydpi="90"
           id="path971" />
        <path
           d="m 423,301 c -1.14,1.61 -4.87,5.35 -5.65,9.83 -0.14,0.767 -0.81,1.2 -0.613,0.006 0.806,-4.37 4.02,-7.81 5.68,-10.1 0.746,-0.921 1.02,-0.44 0.58,0.245 z"
           style="fill:#002b64"
           inkscape:export-filename="/mnt/files/documents/monty-program-ab/logos/seal-flat.png"
           inkscape:export-xdpi="90"
           inkscape:export-ydpi="90"
           id="path973" />
        <path
           d="m 422,300 c -1.36,1.44 -5.8,6.2 -7.2,10.5 -0.248,0.74 -0.971,1.07 -0.608,-0.08 1.41,-4.22 5.3,-8.76 7.27,-10.8 0.869,-0.807 1.07,-0.292 0.54,0.325 z"
           style="fill:#002b64"
           inkscape:export-filename="/mnt/files/documents/monty-program-ab/logos/seal-flat.png"
           inkscape:export-xdpi="90"
           inkscape:export-ydpi="90"
           id="path975" />
      </g>
    </g>
    <g
       id="g4261"
       transform="rotate(19.080558,-68.258961,230.06415)">
      <path
         inkscape:original-d="M 0,0"
         inkscape:path-effect="#path-effect3593"
         d="m 60.494805,131.43461 2.814979,-4.82183 c 0.15406,-0.26007 0.15269,-0.66595 -0.0064,-0.92761 l -2.972589,-5.19362 c -0.04856,-0.068 -0.09713,-0.13607 -0.15691,-0.19214 -0.179341,-0.16824 -0.437934,-0.27596 -0.646481,-0.26929 l -5.591087,-0.0301 c -0.290019,-0.002 -0.654847,0.19489 -0.808907,0.45496 l -3.013161,5.1529 c -0.15406,0.26007 -0.15269,0.66595 0.0064,0.92761 l 2.776109,4.85196 c 0.04857,0.068 0.09713,0.13607 0.15691,0.19215 0.179342,0.16824 0.437934,0.27595 0.646481,0.26929 l 5.973794,0.0295 c 0.313931,0.0248 0.666803,-0.18367 0.820862,-0.44374 z"
         id="path3595" />
      <path
         id="path3482"
         class="st0"
         d="m 60.494805,131.43461 2.814979,-4.82183 c 0.15406,-0.26007 0.15269,-0.66595 -0.0064,-0.92761 l -2.972589,-5.19362 c -0.04856,-0.068 -0.09713,-0.13607 -0.15691,-0.19214 -0.179341,-0.16824 -0.437934,-0.27596 -0.646481,-0.26929 l -5.591087,-0.0301 c -0.290019,-0.002 -0.654847,0.19489 -0.808907,0.45496 l -3.013161,5.1529 c -0.15406,0.26007 -0.15269,0.66595 0.0064,0.92761 l 2.776109,4.85196 c 0.04857,0.068 0.09713,0.13607 0.15691,0.19215 0.179342,0.16824 0.437934,0.27595 0.646481,0.26929 l 5.973794,0.0295 c 0.313931,0.0248 0.666803,-0.18367 0.820862,-0.44374 z"
         style="fill:#ffffff;fill-opacity:1;stroke-width:0.163934"
         sodipodi:nodetypes="ccccsccccccsccsc" />
      <path
         id="symbol_2_"
         class="st0"
         d="m 60.494805,131.43461 2.814979,-4.82183 c 0.15406,-0.26007 0.15269,-0.66595 -0.0064,-0.92761 l -2.972589,-5.19362 c -0.04856,-0.068 -0.09713,-0.13607 -0.15691,-0.19214 -0.179341,-0.16824 -0.437934,-0.27596 -0.646481,-0.26929 l -5.591087,-0.0301 c -0.290019,-0.002 -0.654847,0.19489 -0.808907,0.45496 l -3.013161,5.1529 c -0.15406,0.26007 -0.15269,0.66595 0.0064,0.92761 l 2.776109,4.85196 c 0.04857,0.068 0.09713,0.13607 0.15691,0.19215 0.179342,0.16824 0.437934,0.27595 0.646481,0.26929 l 5.973794,0.0295 c 0.313931,0.0248 0.666803,-0.18367 0.820862,-0.44374 z m -0.608463,-9.60671 2.038755,3.55337 c 0.07396,0.13681 0.02909,0.18463 -0.100942,0.1076 l -1.831726,-1.06646 c -0.141993,-0.0883 -0.252559,-0.28188 -0.245785,-0.43286 l 0.01336,-2.12282 c -0.0164,-0.15025 0.04116,-0.16369 0.126335,-0.0388 z m -3.030115,6.80032 c -0.08824,0.14199 -0.216061,0.13448 -0.290018,-0.002 l -2.198627,-3.83821 c -0.07396,-0.13681 -0.0081,-0.25489 0.142844,-0.24812 l 4.431013,0.0208 c 0.162203,-0.005 0.224205,0.12041 0.147175,0.25045 z m -2.456847,-7.56444 4.69786,0.0239 c 0.162203,-0.005 0.282504,0.13014 0.287686,0.29235 l -0.01199,2.52869 c 0.0052,0.16221 -0.130148,0.28251 -0.292351,0.28769 l -4.69786,-0.0239 c -0.162203,0.005 -0.282504,-0.13014 -0.287687,-0.29235 l 0.01199,-2.52869 c 0.0068,-0.15099 0.130148,-0.28251 0.292352,-0.28769 z m -2.867134,4.2784 2.055896,-3.53342 c 0.08825,-0.14199 0.135329,-0.1203 0.140512,0.0419 l -0.01336,2.12282 c 0.0052,0.1622 -0.11597,0.36324 -0.252781,0.43719 l -1.833873,1.0444 c -0.113639,0.0732 -0.173419,0.0171 -0.09639,-0.11289 z m 2.089097,5.12905 -2.321889,-4.06622 c -0.07396,-0.13681 -0.03354,-0.32367 0.103274,-0.39762 l 2.197961,-1.2648 c 0.136811,-0.074 0.323666,-0.0335 0.397624,0.10328 l 2.321889,4.06622 c 0.07396,0.13681 0.03354,0.32367 -0.103275,0.39763 l -2.197961,1.26479 c -0.148026,0.0859 -0.323666,0.0335 -0.397623,-0.10328 z m 5.137274,0.34618 -4.094651,-0.02 c -0.162203,0.005 -0.17638,-0.0755 -0.03957,-0.1495 l 1.833873,-1.0444 c 0.136811,-0.074 0.36853,-0.0814 0.510522,0.007 l 1.831727,1.06646 c 0.130036,0.077 0.109085,0.14729 -0.0419,0.14052 z m 0.64289,-0.20611 -2.186708,-1.28707 c -0.141992,-0.0883 -0.182302,-0.26093 -0.105273,-0.39096 l 2.364015,-4.05357 c 0.08825,-0.14199 0.260925,-0.1823 0.390961,-0.10527 l 2.186708,1.28708 c 0.141992,0.0882 0.182303,0.26092 0.105273,0.39096 l -2.364015,4.05356 c -0.07703,0.13004 -0.260925,0.1823 -0.390961,0.10527 z"
         style="fill:#4591ed;fill-opacity:1;stroke-width:0.163934" />
    </g>
    <g
       id="type_2_"
       transform="matrix(0.11956099,0.11215789,-0.11215789,0.11956099,36.520935,109.27561)">
		<g
   id="g1114">
			<linearGradient
   id="SVGID_1_"
   gradientUnits="userSpaceOnUse"
   x1="205.32381"
   y1="120.5383"
   x2="483.08841"
   y2="120.5383">
				<stop
   offset="0"
   style="stop-color:#4591ED"
   id="stop1065" />

				<stop
   offset="1"
   style="stop-color:#00C9FF"
   id="stop1067" />

			</linearGradient>

			<path
   class="st1"
   d="m 273.5,111.4 8.9,-1.2 -6.3,35.8 h -8.7 z m 2.6,-15.1 8.9,-1.2 -1.7,9.8 -8.9,1.3 z"
   id="path1070"
   style="fill:url(#SVGID_1_)" />

			<linearGradient
   id="SVGID_2_"
   gradientUnits="userSpaceOnUse"
   x1="205.32381"
   y1="127.9909"
   x2="483.08841"
   y2="127.9909">
				<stop
   offset="0"
   style="stop-color:#4591ED"
   id="stop1072" />

				<stop
   offset="1"
   style="stop-color:#00C9FF"
   id="stop1074" />

			</linearGradient>

			<path
   class="st2"
   d="m 310.2,120.9 c 0.1,-0.4 0.1,-0.8 0.1,-0.9 0,-0.9 -0.4,-1.5 -1.8,-1.5 -2.3,0 -7.2,2.2 -10.5,4.1 l -4.1,23.4 h -8.7 l 6.1,-34.5 7.5,-1.3 -0.1,4.3 c 4.6,-2.5 10.1,-4.4 14.3,-4.4 4.8,0 6.4,3.2 6.4,7 0,1.4 -0.1,2.3 -0.4,3.5 l -4.5,25.5 h -8.7 z"
   id="path1077"
   style="fill:url(#SVGID_2_)" />

			<linearGradient
   id="SVGID_3_"
   gradientUnits="userSpaceOnUse"
   x1="205.32381"
   y1="127.9185"
   x2="483.08841"
   y2="127.9185">
				<stop
   offset="0"
   style="stop-color:#4591ED"
   id="stop1079" />

				<stop
   offset="1"
   style="stop-color:#00C9FF"
   id="stop1081" />

			</linearGradient>

			<path
   class="st3"
   d="m 347.4,117.8 h -8.1 l -5.3,29.8 c -1,5.7 -3.1,9.3 -7.7,13.3 l -5.6,-5.2 c 2.8,-2.7 4.1,-5.1 4.7,-8.9 l 5.1,-29 h -5.4 l 1.2,-7.1 h 5.4 l 0.9,-5.1 c 1.3,-7.5 4.3,-10.8 13.2,-10.8 2.9,0 6.7,0.4 11.1,1.4 l 8.9,-1.2 -9,50.9 h -8.7 l 7.6,-43.1 c -3.5,-0.7 -7,-1.1 -9.8,-1.1 -3,0 -4.2,1 -4.6,3.5 l -0.9,5.4 h 8.8 z"
   id="path1084"
   style="fill:url(#SVGID_3_)" />

			<linearGradient
   id="SVGID_4_"
   gradientUnits="userSpaceOnUse"
   x1="205.32381"
   y1="128.4249"
   x2="483.08841"
   y2="128.4249">
				<stop
   offset="0"
   style="stop-color:#4591ED"
   id="stop1086" />

				<stop
   offset="1"
   style="stop-color:#00C9FF"
   id="stop1088" />

			</linearGradient>

			<path
   class="st4"
   d="m 376.1,135.8 c -0.1,0.5 -0.1,0.8 -0.1,0.9 0,0.9 0.4,1.5 1.8,1.5 2.3,0 7.2,-2.2 10.5,-4.1 l 4,-22.8 8.9,-1.2 -6.2,35.9 h -7.4 l 0.1,-3.7 c -4.6,2.5 -10.1,4.4 -14.3,4.4 -4.8,0 -6.4,-3.2 -6.4,-7 0,-1.4 0.1,-2.3 0.4,-3.5 l 4.3,-24.8 8.9,-1.2 z"
   id="path1091"
   style="fill:url(#SVGID_4_)" />

			<linearGradient
   id="SVGID_5_"
   gradientUnits="userSpaceOnUse"
   x1="205.32381"
   y1="128.0632"
   x2="483.08841"
   y2="128.0632">
				<stop
   offset="0"
   style="stop-color:#4591ED"
   id="stop1093" />

				<stop
   offset="1"
   style="stop-color:#00C9FF"
   id="stop1095" />

			</linearGradient>

			<path
   class="st5"
   d="m 414.9,128.2 -7.6,-16.6 8.1,-1.5 5.3,12.5 8.7,-11.9 h 9.3 l -14.4,18.6 7.7,16.7 h -8.8 l -4.8,-10.2 -8.5,10.2 h -9.3 z"
   id="path1098"
   style="fill:url(#SVGID_5_)" />

			<linearGradient
   id="SVGID_6_"
   gradientUnits="userSpaceOnUse"
   x1="205.32381"
   y1="120.9"
   x2="483.08841"
   y2="120.9">
				<stop
   offset="0"
   style="stop-color:#4591ED"
   id="stop1100" />

				<stop
   offset="1"
   style="stop-color:#00C9FF"
   id="stop1102" />

			</linearGradient>

			<path
   class="st6"
   d="m 465.3,146 h -7.4 v -3.9 c -3,2.7 -6.8,4.6 -12,4.6 -6.1,0 -8.2,-3.3 -8.2,-8 0,-1.2 0.1,-2.4 0.4,-3.7 l 1.8,-10.3 c 1.6,-9 3.3,-14.7 17.1,-14.7 1.3,0 3.8,0.2 5.8,0.7 l 2.5,-14.3 8.9,-1.2 z m -3.7,-28.2 c -1.6,-0.4 -3.9,-0.4 -5.1,-0.4 -5.6,0 -7,2.2 -7.8,6.9 l -2.2,12.4 c -0.1,0.4 -0.1,0.7 -0.1,0.9 0,1.3 0.9,1.9 2.5,1.9 3.7,0 8,-3 9.8,-5.3 z"
   id="path1105"
   style="fill:url(#SVGID_6_)" />

			<linearGradient
   id="SVGID_7_"
   gradientUnits="userSpaceOnUse"
   x1="205.32381"
   y1="120.9"
   x2="483.08841"
   y2="120.9">
				<stop
   offset="0"
   style="stop-color:#4591ED"
   id="stop1107" />

				<stop
   offset="1"
   style="stop-color:#00C9FF"
   id="stop1109" />

			</linearGradient>

			<path
   class="st7"
   d="m 483.1,96.3 8.9,-1.2 -3.2,18 c 3.9,-2.2 7.6,-3.1 11.1,-3.1 6.1,0 8.2,3.3 8.2,8 0,1.2 -0.1,2.4 -0.4,3.7 L 506,132 c -1.9,10.6 -5.5,14.7 -18.2,14.7 -3.3,0 -9.7,-1.1 -13.2,-2.3 z m 1.1,42.6 c 1.6,0.3 3.3,0.5 5.1,0.5 5.6,0 7,-2.3 7.8,-6.9 l 2.2,-12.4 c 0.1,-0.4 0.1,-0.7 0.1,-0.9 0,-1.3 -0.9,-1.9 -2.5,-1.9 -2.7,0 -6.4,1.2 -9.5,3.3 z"
   id="path1112"
   style="fill:url(#SVGID_7_)" />

		</g>

	</g>
    <path
       id="rect1246"
       style="stroke:#ffffff;stroke-width:0;stroke-linecap:square"
       d="M 95.825394,173.74791 V 213.896 c 0,2.25704 -1.817039,4.07389 -4.074078,4.07389 H 72.198643 c -2.257039,0 -4.074078,-1.81685 -4.074078,-4.07389 v -40.14809 z"
       sodipodi:nodetypes="csssscc" />
    <rect
       style="fill:#ffffff;stroke:#ffffff;stroke-width:0;stroke-linecap:square;stroke-dasharray:none"
       id="rect1270"
       width="2.2984707"
       height="37.031387"
       x="80.825752"
       y="177.19341"
       ry="1.1492354" />
    <rect
       style="fill:#ffffff;stroke:#ffffff;stroke-width:0;stroke-linecap:square;stroke-dasharray:none"
       id="rect1370"
       width="2.2984707"
       height="37.031387"
       x="88.825752"
       y="177.19341"
       ry="1.1492354" />
    <rect
       style="fill:#ffffff;stroke:#ffffff;stroke-width:0;stroke-linecap:square;stroke-dasharray:none"
       id="rect1372"
       width="2.2984707"
       height="37.031387"
       x="72.825752"
       y="177.19341"
       ry="1.1492354" />
    <g
       id="g3049"
       transform="rotate(3.7370726,-246.88516,212.09012)">
      <rect
         style="fill:#000000;stroke:#ffffff;stroke-width:0;stroke-linecap:square;stroke-dasharray:none"
         id="rect2593"
         width="31.26717"
         height="2.4959154"
         x="63.549286"
         y="119.77023"
         ry="1.177403" />
      <rect
         style="fill:none;stroke:#000000;stroke-width:1.83401;stroke-linecap:square;stroke-miterlimit:4;stroke-dasharray:none;stroke-opacity:1"
         id="rect2719"
         width="12.167495"
         height="4.0914721"
         x="73.308662"
         y="116.55862"
         ry="0.55375332" />
    </g>
    <path
       style="fill:#7db2f3;fill-opacity:0.622723;stroke:#000000;stroke-width:0.0270167;stroke-linecap:butt;stroke-linejoin:miter;stroke-miterlimit:4;stroke-dasharray:none;stroke-opacity:1"
       d="m 91.313608,157.43056 c 0,0 -1.92371,2.80269 -0.33868,2.81197 1.58502,0.009 0.33868,-2.81197 0.33868,-2.81197 z"
       id="path4371" />
  </g>
  <style
     type="text/css"
     id="style1057">
	.st0{fill:url(#symbol_1_);}
	.st1{fill:url(#SVGID_1_);}
	.st2{fill:url(#SVGID_2_);}
	.st3{fill:url(#SVGID_3_);}
	.st4{fill:url(#SVGID_4_);}
	.st5{fill:url(#SVGID_5_);}
	.st6{fill:url(#SVGID_6_);}
	.st7{fill:url(#SVGID_7_);}
</style>
</svg>
