<?xml version="1.0" encoding="UTF-8" standalone="no"?>
<!-- Created with Inkscape (http://www.inkscape.org/) -->

<svg
   width="31.046476mm"
   height="31.540482mm"
   viewBox="0 0 31.046477 31.540482"
   version="1.1"
   id="svg5"
   inkscape:version="1.1.1 (3bf5ae0d25, 2021-09-20)"
   sodipodi:docname="iconWhiteBorder.svg"
   inkscape:export-filename="iconWhiteBorder.png"
   inkscape:export-xdpi="905.33124"
   inkscape:export-ydpi="905.33124"
   xmlns:inkscape="http://www.inkscape.org/namespaces/inkscape"
   xmlns:sodipodi="http://sodipodi.sourceforge.net/DTD/sodipodi-0.dtd"
   xmlns="http://www.w3.org/2000/svg"
   xmlns:svg="http://www.w3.org/2000/svg">
  <sodipodi:namedview
     id="namedview7"
     pagecolor="#ffffff"
     bordercolor="#666666"
     borderopacity="1.0"
     inkscape:pageshadow="2"
     inkscape:pageopacity="0.0"
     inkscape:pagecheckerboard="0"
     inkscape:document-units="mm"
     showgrid="false"
     fit-margin-top="0"
     fit-margin-left="0"
     fit-margin-right="0"
     fit-margin-bottom="0"
     inkscape:zoom="3.6203868"
     inkscape:cx="32.178882"
     inkscape:cy="50.547085"
     inkscape:window-width="1368"
     inkscape:window-height="850"
     inkscape:window-x="-6"
     inkscape:window-y="-6"
     inkscape:window-maximized="1"
     inkscape:current-layer="layer1"
     inkscape:snap-global="true"
     showguides="true"
     inkscape:guide-bbox="true">
    <sodipodi:guide
       position="79.428294,5.7142472"
       orientation="0,-1"
       id="guide15499" />
  </sodipodi:namedview>
  <defs
     id="defs2">
    <inkscape:path-effect
       effect="mirror_symmetry"
       start_point="129.241,84.555063"
       end_point="129.241,96.092344"
       center_point="129.241,90.323703"
       id="path-effect23508"
       is_visible="true"
       lpeversion="1.1"
       mode="free"
       discard_orig_path="false"
       fuse_paths="false"
       oposite_fuse="false"
       split_items="false"
       split_open="false" />
    <inkscape:path-effect
       effect="mirror_symmetry"
       start_point="129.241,84.555063"
       end_point="129.241,96.092344"
       center_point="129.241,90.323703"
       id="path-effect21795"
       is_visible="true"
       lpeversion="1.1"
       mode="free"
       discard_orig_path="false"
       fuse_paths="false"
       oposite_fuse="false"
       split_items="false"
       split_open="false" />
    <linearGradient
       id="linearGradient17439"
       inkscape:swatch="solid">
      <stop
         style="stop-color:#fefefe;stop-opacity:1;"
         offset="0"
         id="stop17437" />
    </linearGradient>
    <inkscape:path-effect
       effect="mirror_symmetry"
       start_point="94.18802,60.743573"
       end_point="94.18802,72.110723"
       center_point="94.18802,66.427148"
       id="path-effect11228"
       is_visible="true"
       lpeversion="1.1"
       mode="free"
       discard_orig_path="false"
       fuse_paths="false"
       oposite_fuse="false"
       split_items="false"
       split_open="false" />
  </defs>
  <g
     inkscape:groupmode="layer"
     id="layer3"
     inkscape:label="Other"
     style="display:none"
     transform="translate(0.99136952,1.3176189)">
    <path
       d="m 87.555761,51.983953 h -2.645833 l -1.322917,1.5875 v 0.79375 h 0.529167 a 0.79375,0.79375 0 0 0 0.79375,0.79375 0.79375,0.79375 0 0 0 0.79375,-0.79375 h 1.5875 a 0.79375,0.79375 0 0 0 0.79375,0.79375 0.79375,0.79375 0 0 0 0.79375,-0.79375 h 0.529167 v -0.79375 c 0,-0.293687 -0.23548,-0.529167 -0.529167,-0.529167 h -0.529167 l -0.79375,-1.058333 m -2.513541,0.396875 h 1.058333 v 0.661458 h -1.5875 l 0.529167,-0.661458 m 1.455208,0 h 0.926042 l 0.518583,0.661458 h -1.444625 v -0.661458 m -1.5875,1.5875 a 0.396875,0.396875 0 0 1 0.396875,0.396875 0.396875,0.396875 0 0 1 -0.396875,0.396875 0.396875,0.396875 0 0 1 -0.396875,-0.396875 0.396875,0.396875 0 0 1 0.396875,-0.396875 m 3.175,0 a 0.396875,0.396875 0 0 1 0.396875,0.396875 0.396875,0.396875 0 0 1 -0.396875,0.396875 0.396875,0.396875 0 0 1 -0.396875,-0.396875 0.396875,0.396875 0 0 1 0.396875,-0.396875 z"
       id="path13603"
       style="display:inline;stroke-width:0.264583"
       transform="translate(-46.543021,-57.855845)" />
    <path
       d="m 95.700262,54.784381 a 0.396875,0.396875 0 0 1 -0.396875,-0.396875 0.396875,0.396875 0 0 1 0.396875,-0.396875 0.396875,0.396875 0 0 1 0.396875,0.396875 0.396875,0.396875 0 0 1 -0.396875,0.396875 m 0.396875,-2.38125 0.518583,0.661458 h -1.180041 v -0.661458 m -2.910417,2.38125 a 0.396875,0.396875 0 0 1 -0.396875,-0.396875 0.396875,0.396875 0 0 1 0.396875,-0.396875 0.396875,0.396875 0 0 1 0.396875,0.396875 0.396875,0.396875 0 0 1 -0.396875,0.396875 m 3.704167,-2.778125 h -0.79375 v -1.058334 h -3.704167 c -0.293688,0 -0.529167,0.23548 -0.529167,0.529167 v 2.910417 h 0.529167 a 0.79375,0.79375 0 0 0 0.79375,0.79375 0.79375,0.79375 0 0 0 0.79375,-0.79375 h 1.5875 a 0.79375,0.79375 0 0 0 0.79375,0.79375 0.79375,0.79375 0 0 0 0.79375,-0.79375 h 0.529167 v -1.322917 z"
       id="path13612"
       style="display:inline;stroke-width:0.264583"
       transform="translate(-46.543021,-57.855845)" />
  </g>
  <g
     inkscape:label="Icon"
     inkscape:groupmode="layer"
     id="layer1"
     transform="translate(-45.55165,-56.538226)"
     style="display:inline">
    <rect
       style="fill:#ffffff;fill-opacity:1;stroke:none;stroke-width:1.25668;stroke-linecap:round;stroke-linejoin:round;stroke-miterlimit:4;stroke-dasharray:none;stroke-opacity:1"
       id="rect898"
       width="3.9782476"
       height="27.192591"
       x="92.501808"
       y="0.88945556"
       transform="rotate(45)" />
    <circle
       style="fill:#ffffff;fill-opacity:1;stroke:none;stroke-width:1.38618;stroke-linecap:round;stroke-linejoin:round;stroke-opacity:1"
       id="circle842"
       cx="64.689629"
       cy="68.446724"
       r="11.908498" />
    <g
       id="g26256"
       transform="matrix(0.84114128,0,0,0.84114128,-24.94959,4.5570152)">
      <g
         id="g26737"
         transform="translate(16.443476,-1.4054024)"
         inkscape:export-filename="/home/stefan/Downloads/g26737.png"
         inkscape:export-xdpi="905.33124"
         inkscape:export-ydpi="905.33124">
        <path
           d="m 90.956881,69.393789 c -0.102075,-0.296 -0.387863,-0.510346 -0.724692,-0.510346 h -5.613818 c -0.336829,0 -0.622625,0.214346 -0.724693,0.510346 l -1.061523,3.062083 v 4.082778 c 10e-7,0.281857 0.228492,0.510347 0.510349,0.510346 h 0.510346 c 0.281856,0 0.510346,-0.22849 0.510347,-0.510346 v -0.510347 h 6.124165 v 0.510347 c 10e-7,0.281857 0.228491,0.510347 0.510348,0.510346 h 0.510346 c 0.281856,0 0.510346,-0.22849 0.510347,-0.510346 v -4.082778 z"
           id="path26252"
           style="fill:#ffffff;fill-opacity:1;stroke:none;stroke-width:0.510346"
           sodipodi:nodetypes="csscccsssccsssccc" />
        <path
           d="m 83.85285,71.945526 0.765521,-2.296563 h 5.613818 l 0.765521,2.296563 m -0.765521,2.551736 a 0.76552066,0.76552066 0 0 1 -0.76552,-0.765521 0.76552066,0.76552066 0 0 1 0.76552,-0.76552 0.76552066,0.76552066 0 0 1 0.765521,0.76552 0.76552066,0.76552066 0 0 1 -0.765521,0.765521 m -5.613818,0 a 0.76552066,0.76552066 0 0 1 -0.765521,-0.765521 0.76552066,0.76552066 0 0 1 0.765521,-0.76552 0.76552066,0.76552066 0 0 1 0.76552,0.76552 0.76552066,0.76552066 0 0 1 -0.76552,0.765521 m 6.33851,-5.103473 c -0.102075,-0.296 -0.387863,-0.510346 -0.724692,-0.510346 h -5.613818 c -0.336829,0 -0.622625,0.214346 -0.724693,0.510346 l -1.061523,3.062083 v 4.082778 a 0.51034709,0.51034709 0 0 0 0.510349,0.510346 h 0.510346 a 0.51034709,0.51034709 0 0 0 0.510347,-0.510346 v -0.510347 h 6.124165 v 0.510347 a 0.51034709,0.51034709 0 0 0 0.510348,0.510346 h 0.510346 a 0.51034709,0.51034709 0 0 0 0.510347,-0.510346 v -4.082778 z"
           id="path26254"
           style="fill:#d6543d;fill-opacity:1;stroke-width:0.510346" />
      </g>
    </g>
    <rect
       style="fill:#363636;fill-opacity:1;stroke:#363636;stroke-width:0.665;stroke-linecap:round;stroke-linejoin:round;stroke-miterlimit:4;stroke-dasharray:none;stroke-opacity:1"
       id="rect1004"
       width="2.1051769"
       height="14.389554"
       x="93.480064"
       y="12.798534"
       transform="rotate(45)" />
    <g
       id="g24922"
       transform="matrix(0.92628535,0,0,0.92628535,-25.825081,2.9108956)">
      <path
         id="path23504"
         style="fill:#ffffff;fill-opacity:0.994942;stroke-width:0.510347"
         d="m 125.76186,84.555063 c -0.24674,0 -0.80305,1.262243 -0.80305,1.550811 0.004,0.02091 3.3e-4,6.317292 5.1e-4,9.475906 2e-5,0.281858 0.22871,0.510564 0.51057,0.510564 h 0.51004 c 0.28186,0 0.51056,-0.228709 0.51057,-0.510564 v -0.510045 h 2.75022 c -7.8e-4,7.46e-4 2.8e-4,-0.354498 2.8e-4,-10.516641 z m 6.95828,0 c 0.24674,0 0.80305,1.262243 0.80305,1.550811 -0.004,0.02091 -3.3e-4,6.317292 -5.1e-4,9.475906 -2e-5,0.281858 -0.22871,0.510564 -0.51057,0.510564 h -0.51004 c -0.28186,0 -0.51056,-0.228709 -0.51057,-0.510564 v -0.510045 h -2.75022 c 7.8e-4,7.46e-4 -2.8e-4,-0.354498 -2.8e-4,-10.516641 z"
         inkscape:path-effect="#path-effect23508"
         inkscape:original-d="m 125.76186,84.555063 c -0.24674,0 -0.80305,1.262243 -0.80305,1.550811 0.004,0.02091 3.3e-4,6.317292 5.1e-4,9.475906 2e-5,0.281858 0.22871,0.510564 0.51057,0.510564 h 0.51004 c 0.28186,0 0.51056,-0.228709 0.51057,-0.510564 v -0.510045 h 2.75022 c -7.8e-4,7.46e-4 2.8e-4,-0.354498 2.8e-4,-10.516641 z"
         transform="matrix(1.1617424,0,0,1.1617424,-51.019928,-35.578252)"
         sodipodi:nodetypes="ccsssccccc" />
      <path
         id="path21712"
         style="fill:#d6803d;fill-opacity:0.994942;stroke-width:0.510347"
         d="m 125.76186,84.555063 c -0.24674,0 -0.80305,1.262243 -0.80305,1.550811 0.004,0.02091 3.3e-4,6.317292 5.1e-4,9.475906 2e-5,0.281858 0.22871,0.510564 0.51057,0.510564 h 0.51004 c 0.28186,0 0.51056,-0.228709 0.51057,-0.510564 v -0.510045 h 2.75022 v -2.098064 h -2.13579 c -0.0312,2.22e-4 -0.0611,-0.01206 -0.0832,-0.03411 -0.0219,-0.02193 -0.0342,-0.05168 -0.0341,-0.08268 1.8e-4,-0.03089 0.0126,-0.06045 0.0346,-0.08217 0.0221,-0.02154 0.0518,-0.03343 0.0827,-0.03307 h 2.13579 v -0.322458 h -2.3549 c -0.0323,-4.16e-4 -0.0632,-0.01361 -0.0858,-0.03669 -0.0226,-0.02301 -0.0352,-0.05403 -0.0351,-0.0863 3e-4,-0.03199 0.0131,-0.0626 0.0357,-0.08526 0.0227,-0.02258 0.0533,-0.03539 0.0853,-0.03566 h 2.3549 v -0.322461 h -2.52491 c -0.0335,-8.5e-5 -0.0657,-0.01347 -0.0894,-0.03721 -0.0239,-0.02383 -0.0373,-0.05619 -0.0372,-0.08992 -6e-5,-0.03373 0.0133,-0.06609 0.0372,-0.08992 0.0238,-0.02355 0.0559,-0.03674 0.0894,-0.03669 h 2.52491 v -0.289388 h -2.74712 c -0.0175,1.62e-4 -0.035,-0.0032 -0.0512,-0.0098 -0.0161,-0.0067 -0.0306,-0.01656 -0.0429,-0.02894 -0.0124,-0.01226 -0.0222,-0.02683 -0.0289,-0.04289 -0.007,-0.01622 -0.0101,-0.03361 -0.01,-0.05116 -2e-5,-0.01737 0.003,-0.03458 0.01,-0.05064 0.007,-0.01624 0.0165,-0.031 0.0289,-0.04341 0.0123,-0.01238 0.0268,-0.02221 0.0429,-0.02894 0.0162,-0.0066 0.0337,-0.01 0.0512,-0.0098 h 2.74712 v -1.836582 l -3.63751,-5.15e-4 0.01,-2.791045 h 3.62769 v -1.860868 z m 0.006,9.035624 h 1.02785 c 0.31156,0 0.28125,0.864029 0,0.864029 h -0.99323 c -0.32858,0 -0.29672,-0.864029 -0.0346,-0.864029 z m 6.95228,-9.035624 c 0.24674,0 0.80305,1.262243 0.80305,1.550811 -0.004,0.02091 -3.3e-4,6.317292 -5.1e-4,9.475906 -2e-5,0.281858 -0.22871,0.510564 -0.51057,0.510564 h -0.51004 c -0.28186,0 -0.51056,-0.228709 -0.51057,-0.510564 v -0.510045 h -2.75022 v -2.098064 h 2.13579 c 0.0312,2.22e-4 0.0611,-0.01206 0.0832,-0.03411 0.0219,-0.02193 0.0342,-0.05168 0.0341,-0.08268 -1.8e-4,-0.03089 -0.0126,-0.06045 -0.0346,-0.08217 -0.0221,-0.02154 -0.0518,-0.03343 -0.0827,-0.03307 h -2.13579 v -0.322458 h 2.3549 c 0.0323,-4.16e-4 0.0632,-0.01361 0.0858,-0.03669 0.0226,-0.02301 0.0352,-0.05403 0.0351,-0.0863 -3e-4,-0.03199 -0.0131,-0.0626 -0.0357,-0.08526 -0.0227,-0.02258 -0.0533,-0.03539 -0.0853,-0.03566 h -2.3549 v -0.322461 h 2.52491 c 0.0336,-8.5e-5 0.0657,-0.01347 0.0894,-0.03721 0.0239,-0.02383 0.0373,-0.05619 0.0372,-0.08992 6e-5,-0.03373 -0.0133,-0.06609 -0.0372,-0.08992 -0.0238,-0.02355 -0.0559,-0.03674 -0.0894,-0.03669 h -2.52491 v -0.289388 h 2.74712 c 0.0175,1.62e-4 0.0349,-0.0032 0.0512,-0.0098 0.0161,-0.0067 0.0306,-0.01656 0.0429,-0.02894 0.0124,-0.01226 0.0222,-0.02683 0.0289,-0.04289 0.007,-0.01622 0.0101,-0.03361 0.01,-0.05116 2e-5,-0.01737 -0.003,-0.03458 -0.01,-0.05064 -0.007,-0.01624 -0.0165,-0.031 -0.0289,-0.04341 -0.0123,-0.01238 -0.0268,-0.02221 -0.0429,-0.02894 -0.0163,-0.0066 -0.0336,-0.01 -0.0512,-0.0098 h -2.74712 v -1.836582 l 3.63751,-5.15e-4 -0.01,-2.791045 H 129.241 v -1.860868 z m -0.006,9.035624 h -1.02785 c -0.31156,0 -0.28125,0.864029 0,0.864029 h 0.99323 c 0.32858,0 0.29672,-0.864029 0.0346,-0.864029 z"
         inkscape:path-effect="#path-effect21795"
         inkscape:original-d="m 125.76186,84.555063 c -0.24674,0 -0.80305,1.262243 -0.80305,1.550811 0.004,0.02091 3.3e-4,6.317292 5.1e-4,9.475906 2e-5,0.281858 0.22871,0.510564 0.51057,0.510564 h 0.51004 c 0.28186,0 0.51056,-0.228709 0.51057,-0.510564 v -0.510045 h 2.75022 v -2.098064 h -2.13579 a 0.116508,0.116508 0 0 1 -0.0832,-0.03411 0.116508,0.116508 0 0 1 -0.0341,-0.08268 0.116508,0.116508 0 0 1 0.0346,-0.08217 0.116508,0.116508 0 0 1 0.0827,-0.03307 h 2.13579 v -0.322458 h -2.3549 a 0.122361,0.122361 0 0 1 -0.0858,-0.03669 0.122361,0.122361 0 0 1 -0.0351,-0.0863 0.122361,0.122361 0 0 1 0.0357,-0.08526 0.122361,0.122361 0 0 1 0.0853,-0.03566 h 2.3549 v -0.322461 h -2.52491 a 0.12677299,0.12677299 0 0 1 -0.0894,-0.03721 0.12677299,0.12677299 0 0 1 -0.0372,-0.08992 0.12677299,0.12677299 0 0 1 0.0372,-0.08992 0.12677299,0.12677299 0 0 1 0.0894,-0.03669 h 2.52491 v -0.289388 h -2.74712 a 0.13229149,0.13229149 0 0 1 -0.0512,-0.0098 0.13229149,0.13229149 0 0 1 -0.0429,-0.02894 0.13229149,0.13229149 0 0 1 -0.0289,-0.04289 0.13229149,0.13229149 0 0 1 -0.01,-0.05116 0.13229149,0.13229149 0 0 1 0.01,-0.05064 0.13229149,0.13229149 0 0 1 0.0289,-0.04341 0.13229149,0.13229149 0 0 1 0.0429,-0.02894 0.13229149,0.13229149 0 0 1 0.0512,-0.0098 h 2.74712 v -1.836582 l -3.63751,-5.15e-4 0.01,-2.791045 h 3.62769 v -1.860868 z m 0.006,9.035624 h 1.02785 c 0.31156,0 0.28125,0.864029 0,0.864029 h -0.99323 c -0.32858,0 -0.29672,-0.864029 -0.0346,-0.864029 z"
         transform="matrix(1.1617424,0,0,1.1617424,-51.01946,-35.578252)" />
    </g>
    <circle
       style="fill:none;fill-opacity:1;stroke:#363636;stroke-width:1.165;stroke-linecap:round;stroke-linejoin:round;stroke-opacity:1"
       id="path980"
       cx="64.689629"
       cy="68.446724"
       r="10.008379" />
    <g
       id="g23502"
       transform="matrix(0.84114128,0,0,0.84114128,-11.433732,10.718978)">
      <path
         d="m 92.458746,69.605478 c -0.102075,-0.296 -0.387863,-0.510346 -0.724692,-0.510346 h -5.613818 c -0.336829,0 -0.622625,0.214346 -0.724693,0.510346 l -1.061523,3.062083 v 4.082778 c 1e-6,0.281857 0.228492,0.510347 0.510349,0.510346 h 0.510346 c 0.281856,0 0.510346,-0.22849 0.510347,-0.510346 v -0.510347 h 6.124165 v 0.510347 c 10e-7,0.281857 0.228491,0.510347 0.510348,0.510346 h 0.510346 c 0.281856,0 0.510346,-0.22849 0.510347,-0.510346 v -4.082778 z"
         id="path22973"
         style="fill:#ffffff;fill-opacity:1;stroke:none;stroke-width:0.510346"
         sodipodi:nodetypes="csscccsssccsssccc" />
      <path
         d="m 85.355053,72.157215 0.765521,-2.296563 h 5.613818 l 0.765521,2.296563 m -0.765521,2.551736 a 0.76552066,0.76552066 0 0 1 -0.76552,-0.765521 0.76552066,0.76552066 0 0 1 0.76552,-0.76552 0.76552066,0.76552066 0 0 1 0.765521,0.76552 0.76552066,0.76552066 0 0 1 -0.765521,0.765521 m -5.613818,0 a 0.76552066,0.76552066 0 0 1 -0.765521,-0.765521 0.76552066,0.76552066 0 0 1 0.765521,-0.76552 0.76552066,0.76552066 0 0 1 0.76552,0.76552 0.76552066,0.76552066 0 0 1 -0.76552,0.765521 m 6.33851,-5.103473 c -0.102075,-0.296 -0.387863,-0.510346 -0.724692,-0.510346 h -5.613818 c -0.336829,0 -0.622625,0.214346 -0.724693,0.510346 l -1.061523,3.062083 v 4.082778 a 0.51034709,0.51034709 0 0 0 0.510349,0.510346 h 0.510346 A 0.51034709,0.51034709 0 0 0 85.8654,76.750339 v -0.510347 h 6.124165 v 0.510347 a 0.51034709,0.51034709 0 0 0 0.510348,0.510346 h 0.510346 a 0.51034709,0.51034709 0 0 0 0.510347,-0.510346 v -4.082778 z"
         id="path6406"
         style="fill:#d6a53d;fill-opacity:1;stroke-width:0.510346" />
    </g>
  </g>
</svg>
