<?xml version="1.0" encoding="UTF-8" standalone="no"?>
<!-- Created with Inkscape (http://www.inkscape.org/) -->

<svg
   width="366.6539"
   height="54.388699"
   viewBox="0 0 366.65388 54.388702"
   version="1.1"
   id="svg5"
   inkscape:version="1.1.2 (0a00cf5339, 2022-02-04, custom)"
   sodipodi:docname="LogoV1.svg"
   xmlns:inkscape="http://www.inkscape.org/namespaces/inkscape"
   xmlns:sodipodi="http://sodipodi.sourceforge.net/DTD/sodipodi-0.dtd"
   xmlns:xlink="http://www.w3.org/1999/xlink"
   xmlns="http://www.w3.org/2000/svg"
   xmlns:svg="http://www.w3.org/2000/svg"
   xmlns:rdf="http://www.w3.org/1999/02/22-rdf-syntax-ns#"
   xmlns:cc="http://creativecommons.org/ns#"
   xmlns:dc="http://purl.org/dc/elements/1.1/">
  <title
     id="title42391">Commean</title>
  <sodipodi:namedview
     id="namedview7"
     pagecolor="#ffffff"
     bordercolor="#666666"
     borderopacity="1.0"
     inkscape:pageshadow="2"
     inkscape:pageopacity="0.0"
     inkscape:pagecheckerboard="0"
     inkscape:document-units="px"
     showgrid="false"
     fit-margin-top="0"
     fit-margin-left="0"
     fit-margin-right="0"
     fit-margin-bottom="0"
     inkscape:zoom="1"
     inkscape:cx="184.5"
     inkscape:cy="97.5"
     inkscape:window-width="1368"
     inkscape:window-height="850"
     inkscape:window-x="-6"
     inkscape:window-y="-6"
     inkscape:window-maximized="1"
     inkscape:current-layer="layer1"
     inkscape:snap-global="false"
     units="px" />
  <defs
     id="defs2" />
  <g
     inkscape:label="main"
     inkscape:groupmode="layer"
     id="layer1"
     transform="translate(-64.131078,-115.13783)">
    <g
       aria-label="Commean"
       id="text7397"
       style="font-size:74.6667px;fill:none;stroke:#ca8e5d;stroke-width:2.26772;stroke-miterlimit:4;stroke-dasharray:none;stroke-opacity:1">
      <path
         id="path32253"
         style="font-family:Trueno;-inkscape-font-specification:'Trueno, Normal';stroke:#dd551a;stroke-width:7.1811"
         transform="translate(5.4228004)"
         d="m 102.04088,124.0565 c -4.283233,-3.26778 -9.685813,-5.32812 -15.242192,-5.32812 H 86.40094 c -13.755165,0 -24.102112,10.33833 -24.102112,23.45521 0,13.30019 10.619798,23.75196 24.275391,23.75196 5.540471,0 10.999284,-2.23367 15.419921,-5.6543"
         sodipodi:nodetypes="cccssc" />
      <path
         style="font-family:Trueno;-inkscape-font-specification:'Trueno, Normal';fill:none;stroke:#dd551a;stroke-width:5.66929;stroke-miterlimit:4;stroke-dasharray:none;stroke-opacity:1"
         sodipodi:type="inkscape:offset"
         inkscape:radius="-2.50457"
         inkscape:original="M 130.62891 128.89258 C 118.9809 128.89258 110.69336 136.95702 110.69336 148.67969 C 110.69336 160.47703 118.9809 168.61523 130.62891 168.61523 C 142.27692 168.61523 150.56445 160.47703 150.56445 148.67969 C 150.56445 136.95702 142.27692 128.89258 130.62891 128.89258 z M 130.62891 134.19336 C 138.84225 134.19336 144.74023 140.16724 144.74023 148.75391 C 144.74023 157.41525 138.84225 163.38867 130.62891 163.38867 C 122.41557 163.38867 116.51563 157.41525 116.51562 148.75391 C 116.51562 140.16724 122.41557 134.19336 130.62891 134.19336 z "
         xlink:href="#path20421"
         id="path32661"
         d="m 130.62891,131.39648 c -10.492,0 -17.43164,6.74097 -17.43164,17.28321 0,10.62438 6.95022,17.43164 17.43164,17.43164 10.48142,0 17.43164,-6.80726 17.43164,-17.43164 0,-10.54224 -6.93965,-17.28321 -17.43164,-17.28321 z m 0,0.29297 c 9.42778,0 16.61523,7.3309 16.61523,17.06446 0,9.79834 -7.18754,17.13867 -16.61523,17.13867 -9.4277,0 -16.61718,-7.33996 -16.61719,-17.13867 0,-9.73394 7.1894,-17.06446 16.61719,-17.06446 z"
         transform="translate(4.5190003)"
         inkscape:href="#path20421" />
      <path
         style="font-family:Trueno;-inkscape-font-specification:'Trueno, Normal';fill:none;stroke:#dd551a;stroke-width:5.29134;stroke-miterlimit:4;stroke-dasharray:none;stroke-opacity:1"
         sodipodi:type="inkscape:offset"
         inkscape:radius="-1.5106342"
         inkscape:original="M 181.55078 128.81641 C 174.45744 128.89111 169.15631 131.80311 166.54297 137.92578 L 166.54297 129.04102 L 160.79297 129.04102 L 160.79297 168.39062 L 166.54297 168.39062 L 166.54297 149.05273 C 166.54297 140.61539 171.39694 134.79041 179.46094 134.56641 C 186.33028 134.56641 190.36133 138.67274 190.36133 145.69141 L 190.36133 168.39062 L 196.25977 168.39062 L 196.25977 149.05273 C 196.25977 140.61539 200.96485 134.79041 209.10352 134.56641 C 215.89819 134.56641 220.00391 138.67274 220.00391 145.69141 L 220.00391 168.39062 L 225.82812 168.39062 L 225.82812 144.125 C 225.82812 134.64233 220.37736 128.81641 211.19336 128.81641 C 203.65202 128.89111 198.12806 132.17709 195.66406 139.12109 C 194.02139 132.62509 188.94278 128.81641 181.55078 128.81641 z "
         xlink:href="#path20423"
         id="path32861"
         d="m 181.55859,130.32617 c -6.68332,0.0725 -11.23627,2.59235 -13.62695,8.19336 a 1.5107852,1.5107852 0 0 1 -2.89844,-0.59375 v -7.375 h -2.73047 v 36.33008 h 2.73047 v -17.82813 c 0,-4.50835 1.30509,-8.45713 3.8086,-11.31835 2.50351,-2.86123 6.19122,-4.55588 10.57812,-4.67774 a 1.5107852,1.5107852 0 0 1 0.041,0 c 3.73567,0 6.91449,1.14784 9.10547,3.38281 2.19097,2.23498 3.30468,5.45342 3.30468,9.25196 v 21.18945 H 194.75 v -17.82813 c 0,-4.49947 1.25995,-8.44435 3.73633,-11.31054 2.47637,-2.8662 6.15485,-4.56386 10.57617,-4.68555 a 1.5107852,1.5107852 0 0 1 0.041,0 c 3.70165,0 6.87562,1.14927 9.07421,3.38086 2.1986,2.23159 3.33594,5.45001 3.33594,9.25391 v 21.18945 h 2.80469 V 144.125 c 0,-4.45189 -1.26214,-7.85835 -3.45898,-10.16992 -2.19507,-2.30971 -5.38887,-3.62678 -9.65626,-3.62891 -7.10638,0.072 -11.83963,2.88772 -14.11523,9.30078 a 1.5107852,1.5107852 0 0 1 -2.88867,-0.13476 c -1.49504,-5.91218 -5.77249,-9.16334 -12.64063,-9.16602 z"
         inkscape:href="#path20423" />
      <path
         style="font-family:Trueno;-inkscape-font-specification:'Trueno, Normal';fill:none;stroke:#dd551a;stroke-width:5.29134;stroke-miterlimit:4;stroke-dasharray:none;stroke-opacity:1"
         sodipodi:type="inkscape:offset"
         inkscape:radius="-1.5106342"
         inkscape:original="M 181.55078 128.81641 C 174.45744 128.89111 169.15631 131.80311 166.54297 137.92578 L 166.54297 129.04102 L 160.79297 129.04102 L 160.79297 168.39062 L 166.54297 168.39062 L 166.54297 149.05273 C 166.54297 140.61539 171.39694 134.79041 179.46094 134.56641 C 186.33028 134.56641 190.36133 138.67274 190.36133 145.69141 L 190.36133 168.39062 L 196.25977 168.39062 L 196.25977 149.05273 C 196.25977 140.61539 200.96485 134.79041 209.10352 134.56641 C 215.89819 134.56641 220.00391 138.67274 220.00391 145.69141 L 220.00391 168.39062 L 225.82812 168.39062 L 225.82812 144.125 C 225.82812 134.64233 220.37736 128.81641 211.19336 128.81641 C 203.65202 128.89111 198.12806 132.17709 195.66406 139.12109 C 194.02139 132.62509 188.94278 128.81641 181.55078 128.81641 z "
         xlink:href="#path20423"
         id="path33221"
         d="m 181.55859,130.32617 c -6.68332,0.0725 -11.23627,2.59235 -13.62695,8.19336 a 1.5107852,1.5107852 0 0 1 -2.89844,-0.59375 v -7.375 h -2.73047 v 36.33008 h 2.73047 v -17.82813 c 0,-4.50835 1.30509,-8.45713 3.8086,-11.31835 2.50351,-2.86123 6.19122,-4.55588 10.57812,-4.67774 a 1.5107852,1.5107852 0 0 1 0.041,0 c 3.73567,0 6.91449,1.14784 9.10547,3.38281 2.19097,2.23498 3.30468,5.45342 3.30468,9.25196 v 21.18945 H 194.75 v -17.82813 c 0,-4.49947 1.25995,-8.44435 3.73633,-11.31054 2.47637,-2.8662 6.15485,-4.56386 10.57617,-4.68555 a 1.5107852,1.5107852 0 0 1 0.041,0 c 3.70165,0 6.87562,1.14927 9.07421,3.38086 2.1986,2.23159 3.33594,5.45001 3.33594,9.25391 v 21.18945 h 2.80469 V 144.125 c 0,-4.45189 -1.26214,-7.85835 -3.45898,-10.16992 -2.19507,-2.30971 -5.38887,-3.62678 -9.65626,-3.62891 -7.10638,0.072 -11.83963,2.88772 -14.11523,9.30078 a 1.5107852,1.5107852 0 0 1 -2.88867,-0.13476 c -1.49504,-5.91218 -5.77249,-9.16334 -12.64063,-9.16602 z"
         inkscape:href="#path20423"
         transform="translate(73.885656)" />
      <path
         style="font-family:Trueno;-inkscape-font-specification:'Trueno, Normal';fill:none;stroke:#dd551a;stroke-width:4.53543;stroke-miterlimit:4;stroke-dasharray:none;stroke-opacity:1"
         sodipodi:type="inkscape:offset"
         inkscape:radius="-1.5566849"
         inkscape:original="M 327.25781 128.89258 C 315.83381 128.89258 307.76953 137.03124 307.76953 148.75391 C 307.76953 160.47658 315.75869 168.61523 327.33203 168.61523 C 333.9027 168.61523 339.42878 166.22626 343.16211 162.04492 L 339.95117 158.60938 C 336.88984 161.82004 332.63459 163.53711 327.78125 163.53711 C 320.16525 163.53711 314.56486 158.68481 313.51953 150.99414 L 345.625 150.99414 C 346.22234 137.6288 339.95115 128.81791 327.25781 128.89258 z M 327.25781 133.89453 C 334.94848 133.89453 340.02511 138.6735 340.39844 146.21484 L 313.51953 146.21484 C 314.41553 138.74817 319.79114 133.89453 327.25781 133.89453 z "
         xlink:href="#path20427"
         id="path33223"
         d="m 327.25781,130.44922 c -10.68466,0 -17.93164,7.29593 -17.93164,18.30469 0,11.0154 7.16232,18.30468 18.00586,18.30468 5.62317,0 10.23781,-1.90274 13.61328,-5.10742 l -1.125,-1.20312 c -3.24504,2.79339 -7.41286,4.3457 -12.03906,4.3457 -8.2772,0 -14.67119,-5.55129 -15.80469,-13.89063 a 1.5568405,1.5568405 0 0 1 1.54297,-1.76562 h 30.51953 c 0.017,-5.70947 -1.28275,-10.36846 -3.83008,-13.56445 -2.77265,-3.47871 -6.9564,-5.45904 -12.9414,-5.42383 a 1.5568405,1.5568405 0 0 1 -0.01,0 z m 0,1.88867 c 4.16778,0 7.78356,1.31783 10.37891,3.75391 2.59535,2.43607 4.11331,5.94439 4.3164,10.04687 a 1.5568405,1.5568405 0 0 1 -1.55468,1.63281 h -26.87891 a 1.5568405,1.5568405 0 0 1 -1.54492,-1.74218 c 0.97425,-8.11874 7.14193,-13.69141 15.2832,-13.69141 z"
         inkscape:href="#path20427" />
      <path
         style="font-family:Trueno;-inkscape-font-specification:'Trueno, Normal';fill:none;stroke:#dd551a;stroke-width:5.29134;stroke-miterlimit:4;stroke-dasharray:none;stroke-opacity:1"
         sodipodi:type="inkscape:offset"
         inkscape:radius="-1.9974126"
         inkscape:original="M 375.46094 128.81641 C 368.74093 128.81641 364.48554 130.75913 359.4082 134.11914 L 361.87109 138.375 C 365.97775 135.53766 370.00917 133.89453 374.33984 133.89453 C 381.28384 133.89453 384.86914 137.32878 384.86914 143.07812 L 384.86914 145.39258 L 371.95117 145.39258 C 362.6925 145.46728 357.24219 149.79863 357.24219 156.66797 C 357.24219 163.46264 362.46875 168.68945 370.60742 168.68945 C 376.87942 168.68945 381.88158 166.5978 385.01758 162.3418 L 385.01758 168.39062 L 390.69336 168.39062 L 390.61719 142.40625 C 390.54249 133.96891 385.16761 128.81641 375.46094 128.81641 z M 372.69727 150.09766 L 384.94336 150.09766 L 384.94336 154.80078 C 383.45002 160.25145 378.3719 163.61133 371.72656 163.61133 C 366.20122 163.61133 362.69336 160.77403 362.69336 156.44336 C 362.69336 152.11269 366.1266 150.09766 372.69727 150.09766 z "
         xlink:href="#path20429"
         id="path33418"
         d="m 375.46094,130.81445 c -5.61579,0 -9.17591,1.40775 -13.34766,3.99024 l 0.52539,0.91015 c 3.73127,-2.26051 7.56155,-3.81836 11.70117,-3.81836 3.80129,0 6.96746,0.95022 9.19922,2.94532 2.23177,1.9951 3.32813,4.94646 3.32813,8.23632 v 2.31446 a 1.9976123,1.9976123 0 0 1 -1.99805,1.99804 H 371.9668 c -4.32106,0.0349 -7.55522,1.07405 -9.61914,2.67188 -2.06393,1.59783 -3.10743,3.69906 -3.10743,6.60547 0,5.77038 4.08371,10.02344 11.36719,10.02344 5.82792,0 10.08305,-1.84416 12.80274,-5.53516 a 1.9976123,1.9976123 0 0 1 3.60546,1.18555 v 4.05078 h 1.67383 l -0.0703,-23.96875 c -0.0336,-3.79818 -1.19824,-6.57012 -3.31445,-8.50195 -2.11621,-1.93184 -5.34384,-3.10743 -9.84375,-3.10743 z m -2.76367,17.28516 h 12.24609 a 1.9976123,1.9976123 0 0 1 1.99805,1.99805 v 4.70312 a 1.9976123,1.9976123 0 0 1 -0.0723,0.52734 c -1.74299,6.36189 -7.82398,10.28126 -15.14258,10.28126 -3.10456,0 -5.82312,-0.79222 -7.83398,-2.39649 -2.01086,-1.60426 -3.19727,-4.06489 -3.19727,-6.76953 0,-2.69317 1.29015,-5.12935 3.48047,-6.49219 2.19032,-1.36284 5.03197,-1.85156 8.52149,-1.85156 z"
         inkscape:href="#path20429"
         transform="translate(-5.7517484)" />
      <path
         style="font-family:Trueno;-inkscape-font-specification:'Trueno, Normal';fill:none;stroke:#dd551a;stroke-width:4.53543;stroke-miterlimit:4;stroke-dasharray:none;stroke-opacity:1"
         sodipodi:type="inkscape:offset"
         inkscape:radius="-1.5711803"
         inkscape:original="M 424.74023 128.81641 C 417.57223 128.89111 412.27047 131.72979 409.50781 137.70312 L 409.50781 129.04102 L 403.68555 129.04102 L 403.68555 168.39062 L 409.50781 168.39062 L 409.50781 147.25977 C 410.17981 139.79309 414.95928 134.7153 422.72461 134.64062 C 429.66862 134.64062 433.84961 138.74741 433.84961 145.69141 L 433.84961 168.39062 L 439.67383 168.39062 L 439.67383 144.125 C 439.67383 134.64233 434.14824 128.81641 424.74023 128.81641 z "
         xlink:href="#path20431"
         id="path33613"
         d="m 424.75,130.38672 c -6.75784,0.0719 -11.29641,2.52791 -13.81641,7.97656 a 1.5713375,1.5713375 0 0 1 -2.99609,-0.66016 v -7.09179 h -2.68164 v 36.20898 h 2.68164 v -19.56054 a 1.5713375,1.5713375 0 0 1 0.006,-0.14063 c 0.36296,-4.03288 1.85945,-7.55035 4.41211,-10.06055 2.55266,-2.51019 6.13153,-3.94767 10.35351,-3.98828 a 1.5713375,1.5713375 0 0 1 0.0156,0 c 3.78174,0 7.01894,1.1443 9.27148,3.375 2.25254,2.2307 3.42383,5.45876 3.42383,9.2461 v 21.1289 h 2.6836 V 144.125 c 0,-4.43616 -1.27143,-7.81707 -3.49805,-10.11719 -2.22487,-2.2983 -5.481,-3.61901 -9.85547,-3.62109 z"
         transform="translate(-9.5862474)"
         inkscape:href="#path20431" />
    </g>
  </g>
  <metadata
     id="metadata42350">
    <rdf:RDF>
      <cc:License
         rdf:about="http://artlibre.org/licence/lal">
        <cc:permits
           rdf:resource="http://creativecommons.org/ns#Reproduction" />
        <cc:permits
           rdf:resource="http://creativecommons.org/ns#Distribution" />
        <cc:permits
           rdf:resource="http://creativecommons.org/ns#DerivativeWorks" />
        <cc:requires
           rdf:resource="http://creativecommons.org/ns#ShareAlike" />
        <cc:requires
           rdf:resource="http://creativecommons.org/ns#Notice" />
        <cc:requires
           rdf:resource="http://creativecommons.org/ns#Attribution" />
      </cc:License>
      <cc:Work
         rdf:about="">
        <cc:license
           rdf:resource="http://artlibre.org/licence/lal" />
        <dc:title>Commean</dc:title>
      </cc:Work>
    </rdf:RDF>
  </metadata>
</svg>
