<?xml version="1.0" encoding="UTF-8" standalone="no"?>
<!-- Created with Inkscape (http://www.inkscape.org/) -->

<svg
   width="351.12146"
   height="54.899078"
   viewBox="0 0 351.12144 54.899082"
   version="1.1"
   id="svg5"
   inkscape:version="1.1.2 (0a00cf5339, 2022-02-04, custom)"
   sodipodi:docname="LogoV2.svg"
   xmlns:inkscape="http://www.inkscape.org/namespaces/inkscape"
   xmlns:sodipodi="http://sodipodi.sourceforge.net/DTD/sodipodi-0.dtd"
   xmlns="http://www.w3.org/2000/svg"
   xmlns:svg="http://www.w3.org/2000/svg"
   xmlns:rdf="http://www.w3.org/1999/02/22-rdf-syntax-ns#"
   xmlns:cc="http://creativecommons.org/ns#"
   xmlns:dc="http://purl.org/dc/elements/1.1/">
  <title
     id="title42391">Commean</title>
  <sodipodi:namedview
     id="namedview7"
     pagecolor="#ffffff"
     bordercolor="#666666"
     borderopacity="1.0"
     inkscape:pageshadow="2"
     inkscape:pageopacity="0.0"
     inkscape:pagecheckerboard="0"
     inkscape:document-units="px"
     showgrid="false"
     fit-margin-top="0"
     fit-margin-left="0"
     fit-margin-right="0"
     fit-margin-bottom="0"
     inkscape:zoom="2"
     inkscape:cx="238.25"
     inkscape:cy="10.25"
     inkscape:window-width="2502"
     inkscape:window-height="1382"
     inkscape:window-x="1949"
     inkscape:window-y="29"
     inkscape:window-maximized="1"
     inkscape:current-layer="text7397"
     inkscape:snap-global="false"
     units="px"
     showguides="true" />
  <defs
     id="defs2" />
  <g
     inkscape:label="main"
     inkscape:groupmode="layer"
     id="layer1"
     transform="translate(-64.131078,-115.13783)"
     class="lines">
    <g
       aria-label="Commean"
       id="text7397"
       style="font-size:74.6667px;fill:none;stroke:#ca8e5d;stroke-width:2.26772;stroke-miterlimit:4;stroke-dasharray:none;stroke-opacity:1">
      <path
         id="path32253"
         style="font-family:Trueno;-inkscape-font-specification:'Trueno, Normal';stroke:#f26419;stroke-width:7.1811;stroke-opacity:1"
         transform="translate(5.4228004)"
         d="m 102.04088,124.0565 c -4.283233,-3.26778 -9.685813,-5.32812 -15.242192,-5.32812 H 86.40094 c -13.755165,0 -24.102112,10.33833 -24.102112,23.45521 0,13.30019 10.619798,23.75196 24.275391,23.75196 5.540471,0 10.999284,-2.23367 15.419921,-5.6543"
         sodipodi:nodetypes="cccssc" />
      <path
         id="path32661"
         style="font-family:Trueno;-inkscape-font-specification:'Trueno, Normal';stroke:#f26419;stroke-width:5.66929;stroke-opacity:1"
         transform="translate(4.5190003)"
         d="m 130.62891,131.39648 c -10.492,0 -17.43164,6.74097 -17.43164,17.28321 0,10.62438 6.95022,17.43164 17.43164,17.43164 10.48142,0 17.43164,-6.80726 17.43164,-17.43164 0,-10.54224 -6.93965,-17.28321 -17.43164,-17.28321 z"
         sodipodi:nodetypes="sssss" />
      <path
         id="path32861"
         style="font-family:Trueno;-inkscape-font-specification:'Trueno, Normal';stroke:#f26419;stroke-width:5.29134;stroke-opacity:1"
         d="m 163.17773,130.55078 v 36.33008 h 1.85547 v -17.82813 c 0,-4.50835 1.30509,-8.45713 3.8086,-11.31835 2.50351,-2.86123 6.19122,-4.55588 10.57812,-4.67774 0.0137,-1.9e-4 0.0273,-1.9e-4 0.041,0 3.73567,0 6.91449,1.14784 9.10547,3.38281 2.19097,2.23498 3.30468,5.45342 3.30468,9.25196 v 21.18945 H 193.25 v -17.82813 c 0,-4.49947 1.25995,-8.44435 3.73633,-11.31054 2.47637,-2.8662 6.15485,-4.56386 10.57617,-4.68555 0.0137,-1.9e-4 0.0273,-1.9e-4 0.041,0 3.70165,0 6.87562,1.14927 9.07421,3.38086 2.1986,2.23159 3.33594,5.45001 3.33594,9.25391 v 23.8411"
         sodipodi:nodetypes="cccssccssccssccssc" />
      <path
         id="path47447"
         style="font-family:Trueno;-inkscape-font-specification:'Trueno, Normal';stroke:#f26419;stroke-width:5.29134;stroke-opacity:1"
         d="m 231.41353,130.55078 v 36.33008 h 1.85547 v -17.82813 c 0,-4.50835 1.30509,-8.45713 3.8086,-11.31835 2.50351,-2.86123 6.19122,-4.55588 10.57812,-4.67774 0.0137,-1.9e-4 0.0273,-1.9e-4 0.041,0 3.73567,0 6.91449,1.14784 9.10547,3.38281 2.19097,2.23498 3.30468,5.45342 3.30468,9.25196 v 21.18945 h 1.37893 v -17.82813 c 0,-4.49947 1.25995,-8.44435 3.73633,-11.31054 2.47637,-2.8662 6.15485,-4.56386 10.57617,-4.68555 0.0137,-1.9e-4 0.0273,-1.9e-4 0.041,0 3.70165,0 6.87562,1.14927 9.07421,3.38086 2.1986,2.23159 3.33594,5.45001 3.33594,9.25391 v 23.8411"
         sodipodi:nodetypes="cccssccssccssccssc" />
      <path
         id="path33223"
         style="font-family:Trueno;-inkscape-font-specification:'Trueno, Normal';stroke:#f26419;stroke-width:4.53543;stroke-opacity:1"
         d="m 317.00781,132.3418 c -10.32055,0 -17.16406,6.87994 -17.16406,17.53711 0,10.66709 6.75415,17.53711 17.23828,17.53711 5.14319,0 9.34962,-1.63618 12.52344,-4.38282 l -0.10156,-0.10742 c -3.30998,2.61273 -7.44992,4.06055 -11.97266,4.06055 -8.60282,0 -16.38753,-6.8334 -17.56445,-15.49219 -0.18976,-1.39503 1.89485,-1.69945 3.30273,-1.69922 h 29.74024 c -0.10484,-5.21776 -1.35481,-9.43821 -3.65039,-12.31836 -2.62141,-3.28893 -6.53101,-5.16892 -12.3379,-5.13476 -0.005,1e-5 -0.009,1e-5 -0.0137,0 z"
         sodipodi:nodetypes="sssccscccssss" />
      <path
         id="path33418"
         style="font-family:Trueno;-inkscape-font-specification:'Trueno, Normal';stroke:#f26419;stroke-width:3.691;stroke-miterlimit:4;stroke-dasharray:none;stroke-opacity:1"
         d="m 359.20919,132.31445 c -5.61579,0 -9.17591,1.40775 -13.34766,3.99024 l 0.52539,0.91015 c 3.73127,-2.26051 7.56155,-3.81836 11.70117,-3.81836 3.80129,0 6.96746,0.95022 9.19922,2.94532 2.23177,1.9951 3.32813,4.94646 3.32813,8.23632 v 2.31446 a 1.9976123,1.9976123 0 0 1 -1.99805,1.99804 h -12.90234 c -4.32106,0.0349 -7.55522,1.07405 -9.61914,2.67188 -2.06393,1.59783 -3.10743,3.69906 -3.10743,6.60547 0,5.77038 4.08371,10.02344 11.36719,10.02344 5.82792,0 10.08305,-1.84416 12.80274,-5.53516 a 1.9976123,1.9976123 0 0 1 3.60546,1.18555 v 4.05078 h 1.67383 l -0.0703,-23.96875 c -0.0336,-3.79818 -1.19824,-6.57012 -3.31445,-8.50195 -2.11621,-1.93184 -5.34384,-3.10743 -9.84375,-3.10743 z m -2.76367,17.28516 h 12.24609 a 1.9976123,1.9976123 0 0 1 1.99805,1.99805 v 4.70312 a 1.9976123,1.9976123 0 0 1 -0.0723,0.52734 c -1.74299,6.36189 -7.82398,10.28126 -15.14258,10.28126 -3.10456,0 -5.82312,-0.79222 -7.83398,-2.39649 -2.01086,-1.60426 -3.19727,-4.06489 -3.19727,-6.76953 0,-2.69317 1.29015,-5.12935 3.48047,-6.49219 2.19032,-1.36284 5.03197,-1.85156 8.52149,-1.85156 z" />
      <path
         id="path51227"
         style="font-family:Trueno;-inkscape-font-specification:'Trueno, Normal';stroke:#f26419;stroke-width:5.2687;stroke-opacity:1"
         d="m 383.90221,131.22849 v 35.99158 h 1.85693 v -17.66202 c 0,-4.46634 1.30612,-8.37833 3.8116,-11.21289 2.50548,-2.83457 6.1961,-4.51343 10.58645,-4.63415 0.0137,-2e-4 0.0273,-2e-4 0.0411,0 3.73862,0 6.91994,1.13714 9.11265,3.35128 2.19269,2.21417 3.30728,5.40262 3.30728,9.16576 v 23.57518"
         sodipodi:nodetypes="cccssccssc" />
    </g>
  </g>
  <metadata
     id="metadata42350">
    <rdf:RDF>
      <cc:License
         rdf:about="http://artlibre.org/licence/lal">
        <cc:permits
           rdf:resource="http://creativecommons.org/ns#Reproduction" />
        <cc:permits
           rdf:resource="http://creativecommons.org/ns#Distribution" />
        <cc:permits
           rdf:resource="http://creativecommons.org/ns#DerivativeWorks" />
        <cc:requires
           rdf:resource="http://creativecommons.org/ns#ShareAlike" />
        <cc:requires
           rdf:resource="http://creativecommons.org/ns#Notice" />
        <cc:requires
           rdf:resource="http://creativecommons.org/ns#Attribution" />
      </cc:License>
      <cc:Work
         rdf:about="">
        <cc:license
           rdf:resource="http://artlibre.org/licence/lal" />
        <dc:title>Commean</dc:title>
      </cc:Work>
    </rdf:RDF>
  </metadata>
</svg>
